<svg xmlns="https://www.w3.org/2000/svg" viewBox="0 0 917.1 600" style="white-space:preserve-spaces"><style>.sans-serif{font-family:-apple-system,BlinkMacSystemFont,'avenir next', avenir,'helvetica neue',helvetica,ubuntu,roboto,noto,'segoe ui',arial,sans-serif}</style><path d="M396.426 31.855h3.075V46.4h-3.075V31.855zm8.58 14.545h-3.026V35.49h2.883v1.926h.128q.341-.96 1.137-1.513.795-.554 1.903-.554 1.122 0 1.91.557.789.558 1.052 1.51h.113q.334-.938 1.211-1.503.877-.564 2.078-.564 1.527 0 2.482.97.955.969.955 2.744V46.4h-3.018v-6.74q0-.91-.483-1.364-.483-.454-1.208-.454-.824 0-1.285.522-.462.522-.462 1.374V46.4h-2.933v-6.804q0-.803-.458-1.278-.458-.476-1.204-.476-.504 0-.906.252-.4.252-.635.703-.235.451-.235 1.055V46.4zm18.323.206q-1.044 0-1.86-.366-.817-.366-1.29-1.086-.472-.721-.472-1.8 0-.91.334-1.528t.909-.994q.575-.377 1.31-.568.735-.192 1.545-.27.952-.1 1.534-.188.583-.09.845-.267.263-.177.263-.525v-.043q0-.675-.422-1.044-.423-.37-1.197-.37-.817 0-1.3.36-.483.358-.64.898l-2.797-.227q.213-.995.838-1.723.625-.728 1.615-1.122.991-.394 2.298-.394.91 0 1.744.213t1.484.66q.65.448 1.026 1.147.377.7.377 1.673V46.4h-2.87v-1.513h-.085q-.263.512-.703.899-.44.387-1.058.603-.618.217-1.428.217zm.867-2.088q.667 0 1.179-.266.511-.267.802-.721.291-.455.291-1.03v-1.158q-.142.093-.387.167-.245.075-.55.135-.305.06-.61.107-.306.046-.555.081-.532.078-.93.249-.398.17-.618.458-.22.288-.22.714 0 .618.45.94.452.324 1.148.324zm12.542 6.13q-1.47 0-2.517-.399-1.048-.397-1.666-1.072-.618-.675-.802-1.499l2.798-.376q.128.298.405.565.277.266.735.436.458.17 1.118.17.988 0 1.63-.468.643-.469.643-1.541v-1.996h-.128q-.199.455-.596.86-.398.404-1.023.66-.625.256-1.492.256-1.228 0-2.233-.572-1.005-.572-1.598-1.754-.593-1.183-.593-2.994 0-1.854.603-3.096.604-1.243 1.61-1.861 1.004-.618 2.204-.618.917 0 1.534.309.618.309.998.767t.586.898h.114v-1.832h3.004v11.016q0 1.363-.682 2.283-.681.92-1.885 1.388-1.204.47-2.767.47zm.064-6.677q.732 0 1.24-.366.507-.366.78-1.05.274-.686.274-1.645t-.27-1.666q-.27-.706-.78-1.097-.512-.39-1.244-.39-.745 0-1.257.4-.511.402-.774 1.112-.263.71-.263 1.64 0 .946.267 1.63.266.686.774 1.06.508.372 1.253.372zm12.657 2.642q-1.684 0-2.895-.685-1.21-.686-1.864-1.946-.653-1.261-.653-2.987 0-1.683.653-2.954.653-1.272 1.843-1.982t2.795-.71q1.08 0 2.013.344.934.345 1.634 1.034.7.689 1.09 1.73.39 1.04.39 2.432v.83h-9.211v-1.874h6.364q0-.654-.284-1.158-.285-.504-.785-.792-.501-.288-1.162-.288-.688 0-1.218.316-.529.316-.827.846-.298.529-.305 1.175v1.783q0 .81.301 1.399.302.59.856.909.554.32 1.314.32.504 0 .924-.143.419-.142.717-.426.298-.284.454-.696l2.799.185q-.213 1.009-.87 1.758-.657.75-1.69 1.165-1.034.415-2.383.415zm11.619-14.758h3.025V46.4h-3.025V31.855zm8.551 14.751q-1.044 0-1.86-.366-.818-.366-1.29-1.086-.472-.721-.472-1.8 0-.91.334-1.528.333-.618.909-.994.575-.377 1.31-.568.735-.192 1.545-.27.952-.1 1.534-.188.582-.09.845-.267.263-.177.263-.525v-.043q0-.675-.423-1.044-.422-.37-1.196-.37-.817 0-1.3.36-.483.358-.64.898l-2.798-.227q.213-.995.838-1.723.625-.728 1.616-1.122.99-.394 2.298-.394.909 0 1.743.213.835.213 1.485.66.65.448 1.026 1.147.376.7.376 1.673V46.4h-2.869v-1.513h-.085q-.263.512-.703.899-.44.387-1.058.603-.618.217-1.428.217zm.866-2.088q.668 0 1.18-.266.51-.267.802-.721.291-.455.291-1.03v-1.158q-.142.093-.387.167-.245.075-.55.135-.306.06-.611.107-.306.046-.554.081-.533.078-.93.249-.398.17-.618.458-.22.288-.22.714 0 .618.45.94.451.324 1.147.324zm9.098 5.952q-.575 0-1.076-.09-.5-.088-.827-.216l.682-2.265q.802.248 1.353.131.55-.117.87-.856l.177-.462-3.913-11.221h3.182l2.258 8.011h.114l2.28-8.011 3.203.014-4.24 12.074q-.305.874-.827 1.523-.522.65-1.318 1.009-.795.359-1.918.359zm14.46-3.857q-1.683 0-2.893-.685-1.211-.686-1.865-1.946-.653-1.261-.653-2.987 0-1.683.653-2.954.654-1.272 1.843-1.982 1.19-.71 2.795-.71 1.08 0 2.013.344.934.345 1.634 1.034.7.689 1.09 1.73.39 1.04.39 2.432v.83h-9.21v-1.874h6.363q0-.654-.284-1.158-.284-.504-.785-.792-.5-.288-1.161-.288-.69 0-1.218.316-.53.316-.828.846-.298.529-.305 1.175v1.783q0 .81.302 1.399.302.59.855.909.554.32 1.314.32.505 0 .924-.143.419-.142.717-.426.298-.284.455-.696l2.798.185q-.213 1.009-.87 1.758-.657.75-1.69 1.165-1.034.415-2.383.415zm10.008-.213h-3.026V35.49h2.933v1.904h.114q.298-1.015 1.002-1.537.703-.522 1.619-.522.227 0 .49.028t.462.078v2.685q-.214-.064-.59-.114t-.689-.05q-.667 0-1.19.288-.522.288-.823.8-.302.51-.302 1.178V46.4zm14.226-7.798l-2.77.17q-.071-.355-.306-.643-.234-.287-.614-.461-.38-.174-.906-.174-.703 0-1.186.294-.483.295-.483.785 0 .39.313.66.312.27 1.072.434l1.975.398q1.59.326 2.372 1.05.781.725.781 1.904 0 1.073-.628 1.882-.629.81-1.72 1.261-1.09.451-2.51.451-2.166 0-3.448-.905-1.282-.906-1.502-2.469l2.976-.156q.135.66.653 1.005.519.345 1.328.345.796 0 1.282-.31.487-.308.494-.798-.007-.412-.348-.679-.341-.266-1.051-.408l-1.89-.376q-1.597-.32-2.375-1.108-.778-.789-.778-2.01 0-1.051.572-1.811t1.612-1.172q1.04-.412 2.44-.412 2.067 0 3.256.873 1.19.874 1.389 2.38z"></path><g transform="translate(458.6,349.7) scale(2,2) translate(-146.6,-108)"><g transform="translate(146.5,125.5) translate(-146.5,-90.5)"><path fill="#005fad" d="M293 96.4V84.6H0v11.8l146.5 84.5z" fill-rule="evenodd"></path><path fill="#0071ce" d="M293 84.6L146.5 0 0 84.6l146.5 84.6z" fill-rule="evenodd"></path><path fill="#2d536d" d="M66.7 106.9l34.4 19.9 6.6-3.8-14.3-8.2 12.5-7.2-5.9-3.4-12.4 7.2-8-4.6L94 98.5l-6.4-3.7zm46.9-9l-9.7-5.6 7.2-4.2c1.5-.9 3-1.3 4.5-1.3s3.1.5 4.7 1.5c1.8 1 2.7 1.9 2.7 2.8 0 .9-.7 1.7-2.2 2.6l-7.2 4.2zm-22.2-5.3l34.5 19.9 6.5-3.8L119 101l6.5-3.8c1.7-1 3.3-1.4 4.8-1.3 1.6 0 3.4.5 5.4 1.4 1.5.7 3.1 1.5 4.7 2.3 1.6.8 3.1 1.5 4.6 1.9l6.5-3.8c-.7-.1-1.6-.3-2.4-.6-.9-.3-1.7-.7-2.5-1.1-.9-.4-1.7-.8-2.4-1.2-.8-.4-1.5-.8-2.1-1.1-.9-.5-1.9-.9-2.9-1.3s-2-.7-3.1-1c-1-.2-2.1-.3-3.2-.3-1 0-2.1.2-3.1.5l-.1-.1c.9-1.4.9-2.7.2-4-.8-1.3-2.1-2.5-4.2-3.7-1.3-.7-2.7-1.3-4.3-1.8-1.5-.4-3.1-.6-4.7-.7-1.6-.1-3.3.1-4.8.4-1.6.3-3 .9-4.4 1.7l-16.1 9.2zm52.8-10.4c-1.5-.8-2.8-1.8-3.9-2.8-1.2-.9-2-1.9-2.4-2.9-.5-1.1-.5-2.1-.2-3 .4-1 1.3-1.9 2.8-2.8 1.5-.8 3-1.4 4.7-1.6 1.7-.2 3.4-.2 5.2.1 1.7.3 3.5.7 5.2 1.4 1.7.6 3.3 1.4 4.8 2.3 1.4.8 2.7 1.7 3.8 2.7 1.1.9 1.8 1.9 2.3 2.9.4 1 .5 2 .1 3-.4.9-1.3 1.9-2.8 2.7-1.5.9-3 1.4-4.7 1.6-1.7.2-3.4.2-5.2-.1-1.7-.2-3.4-.7-5-1.3-1.7-.6-3.2-1.3-4.7-2.2zm-6.6 3.8c2.6 1.5 5.2 2.6 8.1 3.5 2.8.8 5.7 1.4 8.5 1.6 2.9.2 5.7 0 8.4-.5s5.3-1.4 7.5-2.8c2.3-1.3 4-2.7 4.8-4.3.9-1.6 1.2-3.2.9-4.8-.4-1.7-1.3-3.3-2.8-5-1.5-1.6-3.5-3.2-6-4.6-2.6-1.5-5.3-2.7-8.2-3.6-2.9-.8-5.8-1.4-8.6-1.6-2.9-.2-5.8-.1-8.5.4s-5.3 1.4-7.6 2.8c-2.3 1.3-3.8 2.7-4.7 4.3-.9 1.6-1.2 3.2-.8 4.9.4 1.7 1.4 3.3 2.9 5 1.5 1.7 3.6 3.2 6.1 4.7zm16.5-29.5l34.4 19.9 6.1-3.6-24.1-13.9.1-.1 31.4 9.8 5.1-3L190 47.3h.1l24.4 14.1 6.1-3.6L186.2 38l-9.3 5.3L194 60.8h-.1l-30.6-9.6zm-9.32 84.78c-.6-.36-.96-.72-1.08-1.2-.24-.36-.24-.72-.12-1.08.12-.36.36-.6.72-.96s.72-.6 1.2-.96c.48-.24.96-.48 1.44-.6.48-.24.96-.36 1.56-.48.6-.12 1.08-.12 1.68 0 .6 0 1.2.24 1.8.6l5.04 2.88c.36.24.84.48 1.32.72.36.24.72.36 1.08.36l-2.28 1.32c-.24 0-.48-.12-.6-.12-.24-.12-.36-.24-.6-.24.12.36 0 .84-.36 1.2-.24.36-.72.72-1.2 1.08-.48.24-.84.36-1.32.48-.48.12-.96.24-1.44.24s-.96 0-1.44-.12c-.6-.12-1.08-.36-1.56-.6-.6-.36-.96-.72-1.08-.96-.24-.36-.24-.6-.24-.84.12-.36.24-.6.48-.84l.72-.72c.24-.24.6-.48.84-.72.36-.24.6-.36.72-.6.24-.12.36-.36.36-.48 0-.24-.12-.36-.48-.48-.24-.24-.48-.36-.72-.36a.765.765 0 00-.72 0c-.24 0-.48 0-.72.12s-.36.12-.6.24c-.48.36-.72.6-.72.84 0 .36.12.6.6.96l-2.28 1.32zm7.32-1.92c0 .12 0 .24-.12.36l-.36.36-.36.36c-.24.12-.36.24-.48.36l-.36.36c-.12.12-.24.24-.24.36s0 .24.12.48c.12.12.24.24.48.36s.48.24.72.24c.24.12.48.12.72.12s.48-.12.6-.12c.24-.12.48-.24.6-.36.48-.24.72-.48.84-.72 0-.24 0-.48-.12-.72a.937.937 0 00-.48-.48c-.24-.24-.48-.36-.6-.36l-.96-.6zm9.84-5.88c.48.24.84.48 1.08.72.36.24.6.48.72.72s.12.6.12.84c-.12.24-.36.48-.72.6-.36.24-.72.36-1.2.48-.48 0-.84 0-1.32-.12-.48 0-.96-.12-1.32-.36-.48-.12-.96-.36-1.32-.6-.36-.24-.72-.48-.96-.72-.36-.24-.6-.48-.72-.72a.765.765 0 010-.72c0-.36.24-.6.6-.72.48-.24.84-.36 1.2-.48.48 0 .96 0 1.32.12.48 0 .84.12 1.32.36.48.12.84.36 1.2.6zm3.72 2.04l1.2.72 2.16-1.2-13.32-7.8-2.28 1.32 4.92 2.88h-.12c-.72-.12-1.44-.12-2.16 0-.6.12-1.2.36-1.68.6-.72.36-1.08.72-1.2 1.2-.24.36-.24.84-.12 1.32.24.36.48.84.96 1.32.36.36.96.84 1.56 1.2.72.36 1.44.72 2.28.96.72.24 1.56.48 2.28.6.84.12 1.56.12 2.4 0 .72-.12 1.44-.36 2.04-.72.48-.36.96-.72 1.08-1.08.24-.36.24-.84 0-1.32zm2.4-5.52c-.48-.24-.72-.48-1.08-.72-.36-.24-.48-.48-.6-.72-.24-.24-.24-.48-.12-.72.12-.36.24-.6.72-.72.36-.24.72-.36 1.2-.48h1.32c.48.12.96.24 1.32.48.48.12.84.36 1.32.6.36.24.72.48.96.72.36.24.6.48.72.72s.12.48 0 .72c0 .24-.24.48-.72.72-.36.24-.72.36-1.2.48-.48 0-.84 0-1.32-.12-.48 0-.84-.12-1.32-.36-.48-.12-.84-.36-1.2-.6zm-2.28 1.32c.72.48 1.56.84 2.4 1.08.72.24 1.56.36 2.4.36.84.12 1.68 0 2.4-.12.72-.24 1.44-.48 2.16-.84.6-.36 1.08-.84 1.44-1.2.24-.48.36-.96.36-1.44-.12-.48-.36-.96-.72-1.44a6.99 6.99 0 00-1.8-1.32c-.84-.48-1.56-.84-2.4-1.08-.84-.24-1.68-.36-2.52-.48-.84 0-1.68.12-2.4.24-.84.12-1.44.48-2.16.84-.6.36-1.08.84-1.44 1.2-.24.48-.36.96-.36 1.44.12.48.36.96.84 1.44.36.48.96.96 1.8 1.32zm17.4-6.48c-.36.24-.72.36-1.2.36-.36.12-.84.12-1.32 0-.36-.12-.84-.24-1.32-.36-.36-.24-.84-.36-1.2-.6l-1.08-.72c-.36-.24-.48-.48-.72-.84a.765.765 0 010-.72c0-.24.24-.48.6-.72s.84-.36 1.2-.36h1.44c.36.12.84.24 1.32.48.36.12.84.36 1.2.6.36.12.72.36 1.08.72.24.24.48.48.6.72s.24.48.12.72-.36.48-.72.72zm-12.12-2.16l13.08 7.56 2.28-1.32-4.56-2.64c.72.12 1.44.12 2.16 0 .6-.12 1.2-.36 1.8-.6.6-.36.96-.84 1.2-1.2.12-.48.12-.84 0-1.32-.12-.48-.48-.84-.84-1.32-.48-.48-1.08-.84-1.68-1.2l-2.16-1.08c-.84-.24-1.56-.36-2.4-.48-.84-.12-1.56-.12-2.28 0-.84.12-1.56.36-2.16.72-.48.36-.84.72-1.08 1.08-.24.36-.12.84.12 1.2l-.12.12-1.2-.72-2.16 1.2zm12.84-7.44l-3-1.56-2.28 1.32 2.88 1.68-1.32.72 1.8 1.08 1.32-.84 5.76 3.36c.48.24.96.36 1.32.48.48.12.96.12 1.32.12.36-.12.84-.12 1.2-.36.36-.12.72-.24 1.08-.48.24-.12.48-.24.6-.48.24-.12.48-.24.6-.36l-2.04-1.2-.24.24c-.12.12-.24.12-.36.24-.36.24-.72.36-1.08.24-.24 0-.6-.12-1.08-.36l-4.8-2.76 1.68-.96-1.68-1.08-1.68.96zm9.6.12l-1.08-.72c-.24-.36-.48-.6-.6-.84s-.12-.48-.12-.72c.12-.24.36-.48.72-.72s.84-.36 1.32-.48c.36 0 .84 0 1.32.12.36 0 .84.12 1.32.36.36.12.84.36 1.2.6l1.08.72c.24.24.48.48.6.72s.24.6.12.84-.36.48-.72.72-.84.36-1.2.36h-1.44c-.36-.12-.84-.24-1.32-.36-.36-.24-.84-.48-1.2-.6zm-2.28 1.32c.72.36 1.56.72 2.4.96.84.24 1.68.36 2.52.48.84 0 1.56-.12 2.4-.24.72-.12 1.44-.48 2.04-.84.72-.36 1.2-.72 1.44-1.2.36-.48.48-.96.36-1.44 0-.48-.24-.96-.72-1.44-.36-.48-.96-.84-1.8-1.32-.72-.48-1.56-.84-2.4-1.08-.84-.24-1.68-.36-2.52-.36-.72-.12-1.56 0-2.4.12-.72.24-1.44.48-2.04.84-.72.36-1.2.84-1.44 1.32-.36.36-.48.84-.36 1.32 0 .48.36.96.72 1.44.48.48 1.08.96 1.8 1.44zm17.52-6.6c-.36.24-.84.36-1.2.48-.48 0-.96 0-1.32-.12-.48 0-.96-.12-1.32-.36-.48-.12-.84-.36-1.32-.6l-1.08-.72c-.24-.24-.48-.48-.6-.72s-.12-.48-.12-.84c.12-.24.36-.48.72-.6.36-.24.72-.36 1.2-.48.48 0 .84 0 1.32.12.48 0 .96.12 1.32.36.48.12.84.36 1.32.6.36.24.72.48.96.72.36.24.6.48.72.72s.12.48 0 .72c0 .36-.24.48-.6.72zm-12.24-2.16l13.08 7.56 2.28-1.32-4.56-2.64c.84.12 1.56.12 2.16 0 .72-.12 1.32-.36 1.8-.6.6-.36 1.08-.72 1.2-1.2.24-.36.24-.84.12-1.32-.24-.36-.48-.84-.96-1.32-.48-.36-.96-.84-1.68-1.2-.6-.36-1.32-.72-2.16-.96-.72-.36-1.56-.48-2.28-.6-.84-.12-1.56-.12-2.4 0-.72.12-1.44.36-2.16.84-.48.24-.84.6-1.08.96-.12.36-.12.84.12 1.32l-1.2-.72-2.28 1.2zm19.32-6.72l-3.72 2.16c-.12-.12-.36-.24-.48-.48-.24-.12-.36-.36-.36-.48a.765.765 0 010-.72c.12-.24.36-.36.72-.6.6-.36 1.2-.48 1.8-.48.6.12 1.32.24 2.04.6zm-2.04 3.12l6.12-3.48c-.72-.48-1.56-.84-2.4-1.2-.84-.24-1.68-.48-2.52-.6-.84-.12-1.8-.12-2.64 0-.84.12-1.56.48-2.28.84-.6.36-1.08.72-1.32 1.2-.36.48-.36.96-.36 1.44.12.48.36.96.84 1.44.36.48.96.96 1.68 1.32.72.48 1.56.72 2.28 1.08.84.24 1.68.36 2.52.36.84.12 1.56 0 2.4-.12.72-.24 1.44-.48 2.16-.84.96-.6 1.44-1.2 1.68-1.8.12-.72-.24-1.44-1.08-2.4l-2.04 1.2c.24.24.36.48.24.84 0 .36-.24.72-.72.96-.72.36-1.32.6-2.04.48-.84 0-1.56-.24-2.52-.72zm1.92-7.44l9.72 5.64 2.28-1.32-5.04-3c-.96-.6-1.56-1.08-1.68-1.44-.24-.48 0-.84.72-1.2.48-.24 1.08-.36 1.68-.24.6 0 1.32.36 2.16.84l5.4 3.12 2.28-1.32-5.88-3.48c-.6-.36-1.2-.6-1.8-.84-.6-.24-1.2-.36-1.68-.48-.6 0-1.2 0-1.8.12s-1.2.36-1.8.72c-.48.24-.84.6-1.08.96-.12.48-.12.96.12 1.44l-1.44-.72-2.16 1.2zm10.68-7.8l-2.16-1.32-2.4 1.32 2.28 1.32 2.28-1.32zm8.64 9.12l2.16 1.32.72-.36c.6-.36 1.08-.72 1.32-.96s.36-.6.36-.84-.12-.48-.48-.84c-.24-.24-.6-.48-1.08-.72l-10.2-5.88-2.28 1.32L235.5 97c.36.24.6.36.48.6-.12.12-.24.24-.48.36-.12.12-.36.24-.48.24zm5.52-10.08c.48.24.84.48 1.08.72.36.24.6.48.72.72s.12.48.12.72c-.12.36-.36.48-.72.72s-.72.36-1.2.36c-.36.12-.84.12-1.32 0-.48-.12-.96-.24-1.32-.36-.48-.24-.96-.36-1.32-.6-.36-.24-.72-.48-.96-.72-.36-.24-.6-.48-.72-.72s-.12-.6 0-.84c0-.24.24-.48.6-.72.48-.12.84-.24 1.2-.36.48 0 .96 0 1.32.12.48 0 .84.12 1.32.36.48.12.84.36 1.2.6zm3.72 2.04l1.2.72 2.16-1.32-13.32-7.68-2.28 1.32 4.92 2.88h-.12c-.72-.12-1.44-.12-2.16 0-.6.12-1.2.24-1.68.6-.72.36-1.08.72-1.2 1.2-.24.36-.24.84-.12 1.32.24.36.48.84.96 1.32.48.36.96.84 1.56 1.2.72.36 1.44.72 2.28.96.72.24 1.56.48 2.28.6.84 0 1.56 0 2.4-.12.72 0 1.44-.24 2.04-.6.48-.36.96-.72 1.08-1.08.24-.36.24-.84 0-1.32zm-8.04-9.36l13.44 7.68 2.28-1.32-3.36-1.92-.12-1.08 6.6 1.2 2.88-1.68-9.72-1.44-.36-3.96-2.76 1.68.6 3.6-7.08-4.08z" fill-rule="evenodd"></path></g><g id="anime-red" opacity="0" transform="translate(146.6,48.5) translate(0,0) translate(-146.6,-90.5)"><path fill="#bf534f" d="M293.2 350.5v-11.7H.3v11.7l146.4 84.6z" fill-rule="evenodd" transform="translate(0,-254.2)"></path><path fill="#ff6d68" d="M293 338.8l-146.5-84.6L0 338.8l146.5 84.5z" fill-rule="evenodd" transform="translate(0,-254.2)"></path><path d="M110.9 358.3l6.4-3.7c-2.2-1-4.5-1.7-6.8-2.2-2.3-.5-4.5-.7-6.7-.6-2.2.1-4.3.4-6.3.9s-3.8 1.3-5.5 2.2c-2.3 1.3-3.9 2.8-4.7 4.4-.9 1.6-1.2 3.2-.8 4.9.4 1.6 1.3 3.3 2.9 4.9 1.5 1.7 3.6 3.3 6.1 4.8 2.5 1.4 5.2 2.6 8.1 3.4 2.8.9 5.6 1.4 8.5 1.6 2.9.2 5.7.1 8.4-.4 2.7-.6 5.2-1.5 7.5-2.8 1.9-1.1 3.2-2.2 4.1-3.5.9-1.2 1.3-2.5 1.2-3.9-.1-1.4-.6-2.8-1.7-4.2-1-1.4-2.5-2.7-4.5-4.1l-6.3 3.7c2 1.5 3.2 2.9 3.5 4.4.3 1.5-.6 2.8-2.6 4-1.5.8-3 1.3-4.7 1.6-1.7.2-3.4.1-5.2-.1-1.7-.3-3.4-.7-5.1-1.3-1.6-.7-3.2-1.4-4.6-2.2-1.5-.9-2.8-1.8-4-2.8-1.1-1-1.9-2-2.3-3-.5-1-.6-2-.2-3 .4-1 1.3-1.9 2.8-2.7.8-.5 1.7-.8 2.8-1.1 1-.2 2.1-.4 3.2-.4s2.3.1 3.4.3c1.1.1 2.1.5 3.1.9zm22.1-6.1c-1.5-.9-2.8-1.8-3.9-2.8-1.1-1-1.9-2-2.4-3s-.5-2-.2-2.9c.4-1 1.3-1.9 2.8-2.8 1.5-.8 3.1-1.4 4.8-1.6 1.7-.2 3.4-.2 5.1.1 1.8.3 3.5.7 5.2 1.4 1.7.6 3.3 1.4 4.8 2.3 1.5.8 2.7 1.7 3.8 2.7 1.1.9 1.8 1.9 2.3 2.9.4 1 .5 2 .1 3-.4.9-1.3 1.8-2.8 2.7-1.4.8-3 1.4-4.7 1.6-1.7.2-3.4.2-5.1-.1-1.8-.2-3.5-.7-5.1-1.3-1.7-.6-3.2-1.3-4.7-2.2zm-6.5 3.8c2.5 1.4 5.2 2.6 8 3.5 2.8.8 5.7 1.4 8.5 1.6 2.9.2 5.7 0 8.4-.5 2.8-.5 5.3-1.4 7.6-2.8 2.3-1.3 3.9-2.8 4.8-4.3.9-1.6 1.1-3.2.8-4.9-.4-1.6-1.3-3.3-2.8-4.9-1.5-1.6-3.5-3.2-6-4.6-2.6-1.5-5.3-2.7-8.2-3.6-2.9-.9-5.7-1.4-8.6-1.6-2.9-.3-5.7-.1-8.5.4-2.7.5-5.2 1.4-7.5 2.7-2.3 1.4-3.9 2.8-4.8 4.4-.9 1.6-1.2 3.2-.8 4.9.4 1.7 1.4 3.3 2.9 5 1.5 1.6 3.6 3.2 6.2 4.7zm39.1-24l-10.3-5.9 5.1-2.9c.8-.5 1.6-.9 2.4-1.2.8-.3 1.7-.5 2.6-.6.9-.1 1.8-.1 2.8.1 1 .3 2 .7 3.1 1.3 1.1.6 1.9 1.2 2.2 1.8.4.6.5 1.1.3 1.7-.2.5-.5 1-1.1 1.4-.6.5-1.2 1-2 1.4l-5.1 2.9zm-22.7-5.5l34.4 19.9 6.6-3.8-12.4-7.2 6.9-3.9c1.9-1.1 3.2-2.2 3.8-3.3.7-1.1 1-2.2.7-3.3-.2-1.1-.7-2.1-1.7-3.1s-2.1-1.9-3.5-2.7c-1.4-.8-3-1.5-4.7-2-1.7-.5-3.4-.9-5.3-1-1.8-.1-3.7 0-5.7.4-1.9.4-3.8 1.1-5.7 2.2l-13.4 7.8zm56.6-8.4l13.4 7.7 6.5-3.8-13.2-7.6-10.1-18.6-7.3 4.2 6.6 11.8-20.5-3.8-7.4 4.3z" fill="#933131" fill-rule="evenodd" transform="translate(0,-254.2)"></path></g><g id="anime-yellow" opacity="0" transform="translate(146.6,36.7) translate(0,0) translate(-146.6,-90.5)"><path fill="#e0b03b" d="M293.2 195.4v-11.8H.3v11.8l146.4 84.5z" fill-rule="evenodd" transform="translate(0,-99)"></path><path fill="#ffc843" d="M293 183.6L146.5 99 0 183.6l146.5 84.6z" fill-rule="evenodd" transform="translate(0,-99)"></path><path d="M107.1 198.3l-9.6-5.6 7.1-4.1c1.5-.9 3-1.3 4.6-1.3 1.5 0 3.1.4 4.7 1.4 1.8 1 2.6 1.9 2.7 2.8 0 .9-.8 1.8-2.3 2.6l-7.2 4.2zM85 193.1l34.4 19.9 6.6-3.8-13.5-7.8 6.6-3.8c1.6-.9 3.2-1.4 4.8-1.3 1.6.1 3.4.6 5.4 1.5 1.5.7 3.1 1.4 4.7 2.3 1.6.8 3.1 1.4 4.6 1.8l6.5-3.8c-.8-.1-1.6-.3-2.4-.6-.9-.3-1.7-.6-2.6-1.1l-2.4-1.2c-.7-.4-1.4-.7-2-1-.9-.5-1.9-1-2.9-1.4-1-.4-2.1-.7-3.1-.9-1.1-.2-2.1-.4-3.2-.4-1 0-2.1.2-3.2.5h-.1c.9-1.4 1-2.8.3-4.1-.8-1.3-2.2-2.5-4.2-3.6-1.3-.8-2.7-1.4-4.3-1.8-1.5-.4-3.1-.7-4.7-.8-1.7 0-3.3.1-4.8.5-1.6.3-3.1.8-4.4 1.6L85 193.1zm76.9-19.7l-21.4-12.3-6.6 3.8 21.4 12.3c2.6 1.5 4 2.9 4.3 4.1.4 1.2-.7 2.5-3 3.8-1.3.8-2.6 1.3-3.8 1.5-1.3.2-2.4.2-3.6.1-1.1-.2-2.2-.5-3.2-.9-1.1-.4-2.1-.9-3-1.5L121.6 172l-6.6 3.8 21.4 12.3c4.7 2.7 9.3 4.1 13.8 4.1 4.4 0 8.7-1.1 12.7-3.5 4-2.2 6-4.7 6-7.3 0-2.6-2.4-5.3-7-8zm-15.8-15.6l34.4 19.9 6.2-3.5-23.1-13.3.1-.1 35.4 6.1 6.6-3.7-34.4-19.9-6.2 3.5 23.1 13.4h-.1l-35.5-6.1z" fill="#a58234" fill-rule="evenodd" transform="translate(0,-99)"></path><path d="M.6 40.8l8.1 4.7 1.9-1.1-4.7-2.7c-.4-.3-.6-.5-.8-.7-.1-.2-.2-.3-.2-.5 0-.1.1-.3.2-.4.1-.1.2-.2.3-.2.3-.2.6-.3.9-.3.2-.1.5 0 .8 0 .2.1.5.2.7.3.3.2.5.3.7.4l4.6 2.7 1.9-1.1-4.5-2.6c-.3-.2-.5-.3-.7-.5-.2-.2-.4-.3-.5-.5-.1-.1-.1-.3 0-.5 0-.1.2-.3.4-.5.3-.1.6-.2.8-.2.3-.1.6-.1.8 0 .3.1.5.1.8.3.2.1.5.2.8.4l4.5 2.6 2-1.1-5.4-3.1c-.6-.3-1.1-.5-1.6-.6-.5-.2-.9-.3-1.4-.3-.4 0-.9.1-1.3.2s-.8.3-1.2.5c-.5.3-.7.6-.8 1-.1.3-.1.7.1 1-.7-.2-1.3-.2-1.9-.1-.6.1-1.1.3-1.5.5-.5.3-.8.6-.9.9-.1.4-.1.7.1 1.1h-.1l-1.1-.6-1.8 1zm24.1-4.6l-5.7-6-1.9 1.1 4.1 4h-.1L14.2 33l-2 1.2 10.4 3.3zm-4.9-6.5l8.1 4.7 1.9-1.1-4.2-2.4c-.8-.5-1.3-.9-1.4-1.3-.2-.3 0-.6.6-.9.4-.3.9-.4 1.4-.3.5.1 1.1.3 1.8.7l4.5 2.6 1.9-1.1-4.9-2.8c-.5-.3-1-.6-1.5-.8-.5-.2-1-.3-1.4-.3-.5-.1-1-.1-1.5 0s-1 .3-1.5.6c-.4.2-.7.5-.9.9-.1.3-.1.7.1 1.1l-1.1-.6-1.9 1zm12.5-8.6L30.5 20l-1.9 1.2 1.8 1 1.9-1.1zm-.7 1.8l8.1 4.7 1.9-1.1-8-4.7-2 1.1zm3.5-2l8 4.7 2-1.1-4.3-2.4c-.8-.5-1.3-.9-1.4-1.3-.1-.3.1-.6.6-.9.5-.3.9-.4 1.5-.3.5.1 1 .3 1.7.7l4.6 2.6 1.9-1.1-5-2.8c-.5-.3-1-.6-1.5-.8-.4-.2-.9-.3-1.4-.3-.5-.1-1-.1-1.4 0-.5.1-1 .3-1.5.6-.5.2-.7.5-.9.9-.2.3-.2.7.1 1.1H38l-1.1-.6-1.8 1zM50 18.6l-1.8 1.1c.5.3 1.1.5 1.6.6.6.1 1.1.1 1.7 0 .5 0 1-.1 1.5-.3.4-.2.9-.4 1.3-.6.4-.2.7-.5 1-.8.3-.2.5-.5.6-.8.1-.3 0-.6-.2-.9-.1-.3-.5-.6-1-1-.4-.2-.8-.3-1.2-.4-.3-.1-.7-.1-1.1-.1-.4 0-.7.1-1.1.2-.4.1-.7.2-1.1.3-.3.1-.7.2-1 .4-.3.1-.6.2-.9.2-.3.1-.5.1-.8.2-.2 0-.5-.1-.7-.2l-.3-.3c0-.1 0-.2.1-.3 0-.1.1-.2.2-.3.1 0 .2-.1.4-.2.3-.2.7-.3 1.1-.4.4 0 .8.1 1.3.3l1.8-1c-.6-.3-1.1-.5-1.6-.6-.5-.1-1-.1-1.5 0-.5 0-.9.1-1.4.3-.4.1-.8.3-1.2.5-.4.3-.7.5-1 .8-.2.2-.4.5-.5.7-.1.3-.1.6.1.9.1.3.5.6 1 .9.3.2.7.3 1.1.4.3.1.7.1 1.1.1.3-.1.7-.1 1.1-.2.3-.1.7-.2 1-.3.9-.3 1.6-.6 2.1-.7.6-.1 1-.1 1.4.1.2.1.3.3.3.4.1.1.1.2 0 .3 0 .1-.1.3-.2.4-.1.1-.2.2-.4.2-.2.2-.4.2-.6.3-.2.1-.5.1-.7.1-.2.1-.5 0-.8 0-.2-.1-.5-.2-.7-.3zm2.8-7.9l-2.5-1.4-1.9 1.1 2.4 1.4-1.1.7 1.5.9 1.1-.7 4.8 2.7c.4.3.8.4 1.1.5.4.1.8.1 1.1.1.3-.1.7-.2 1-.3.3-.1.6-.3.9-.4.2-.1.4-.3.5-.4.2-.1.4-.2.5-.3l-1.7-1-.2.2c-.1 0-.2.1-.3.2-.3.2-.6.2-.9.2-.2 0-.5-.1-.9-.3l-4-2.3 1.4-.8-1.4-.9-1.4.8zm4.7.2c-.5-.3-.8-.7-1-1-.1-.3-.1-.6 0-.9.1-.3.2-.6.5-.8.3-.3.7-.6 1.1-.8.3-.2.7-.4 1.1-.5.4-.2.9-.3 1.3-.4.5-.1 1-.1 1.5 0 .4 0 .9.2 1.4.5l4.2 2.4c.4.2.7.4 1.1.6.4.1.7.2.9.3l-1.9 1.1c-.2 0-.3-.1-.5-.2-.1 0-.3-.1-.4-.2 0 .4-.1.8-.3 1.1-.3.3-.6.6-1.1.9-.3.2-.7.3-1 .4-.4.1-.8.2-1.2.2-.5 0-.9 0-1.3-.1s-.8-.3-1.3-.5c-.4-.3-.7-.6-.9-.8-.1-.3-.2-.5-.1-.7 0-.3.1-.5.3-.7.2-.2.4-.4.7-.6.2-.2.4-.4.7-.6.2-.2.4-.3.6-.5.1-.2.2-.3.2-.5 0-.1-.1-.2-.3-.4-.3-.1-.5-.2-.7-.2-.2-.1-.4-.1-.6-.1-.2.1-.4.1-.5.2-.2 0-.4.1-.6.2-.3.3-.5.5-.6.7 0 .2.2.5.6.8l-1.9 1.1zm6-1.6c0 .1 0 .2-.1.2 0 .1-.1.2-.2.3-.1.1-.3.2-.4.3-.1.1-.3.2-.4.4l-.3.3c-.1.1-.1.2-.1.3-.1.1 0 .2 0 .3.1.2.3.3.5.4.2.1.4.2.6.2.2.1.4.1.5.1.2-.1.4-.1.6-.2.2 0 .3-.1.5-.2.4-.2.6-.4.6-.6.1-.2.1-.4 0-.6-.1-.2-.3-.3-.5-.5-.2-.1-.3-.2-.4-.3l-.9-.4zm-3.7-6.2l11.1 6.4 2-1.1L61.7 2zm3.5-2l11.1 6.4 1.9-1.1L65.2 0z" transform="translate(140.4,78.5) scale(1.5,1.5) translate(-314,-209) translate(314,209)" fill="#a58234" fill-rule="evenodd"></path></g><g id="anime-green" opacity="0" transform="translate(146.5,25.5) translate(0,0) translate(-146.5,-90.5)"><path d="M12.102-10.362H9.155q-.085-.86-.732-1.335-.646-.476-1.754-.476-.753 0-1.271.21-.519.209-.792.578-.274.37-.274.838-.014.39.167.682.181.291.501.5.32.21.739.363t.895.26l1.306.312q.952.213 1.747.568.796.355 1.378.873.583.519.906 1.222.323.703.33 1.612-.007 1.335-.678 2.312-.671.977-1.932 1.513-1.26.536-3.036.536-1.762 0-3.065-.54T1.56-1.935Q.83-2.997.795-4.567h2.976q.05.732.423 1.218.373.487 1.001.732.629.245 1.424.245.782 0 1.36-.227.58-.228.899-.633.32-.404.32-.93 0-.49-.288-.824-.288-.334-.838-.568-.55-.234-1.346-.426l-1.584-.398q-1.84-.447-2.905-1.399-1.065-.952-1.058-2.564-.007-1.32.707-2.308.713-.987 1.963-1.541 1.25-.554 2.841-.554 1.62 0 2.83.554 1.212.554 1.886 1.54.675.988.696 2.288zM17.33 0h-3.026v-10.91h3.026V0zm-1.5-12.315q-.675 0-1.158-.451-.483-.451-.483-1.083 0-.625.483-1.076.483-.451 1.15-.451.683 0 1.162.45.48.452.48 1.077 0 .632-.48 1.083-.48.45-1.154.45zm6.939 6.008V0h-3.026v-10.91h2.884v1.926h.128q.362-.952 1.214-1.51.852-.557 2.067-.557 1.136 0 1.981.497.846.497 1.314 1.417.47.92.47 2.191V0h-3.026v-6.406q.007-1.002-.512-1.566-.518-.565-1.427-.565-.611 0-1.076.263-.466.263-.725.763-.259.501-.266 1.204zM37.095 4.247q-1.47 0-2.518-.398-1.047-.397-1.665-1.072-.618-.675-.803-1.499l2.799-.376q.128.298.404.565.277.266.736.436.458.17 1.118.17.987 0 1.63-.468.643-.469.643-1.541v-1.996h-.128q-.199.455-.597.86-.397.404-1.022.66T36.2-.156q-1.228 0-2.233-.572-1.005-.572-1.598-1.754-.593-1.183-.593-2.994 0-1.854.603-3.096.604-1.243 1.609-1.861 1.005-.618 2.205-.618.916 0 1.534.309t.998.767q.38.458.586.898h.114v-1.832h3.004V.107q0 1.363-.682 2.283-.682.92-1.885 1.388-1.204.47-2.767.47zm.064-6.676q.732 0 1.24-.366.507-.366.78-1.05.274-.686.274-1.645t-.27-1.666q-.27-.706-.781-1.097-.511-.39-1.243-.39-.746 0-1.257.4-.511.402-.774 1.112-.263.71-.263 1.64 0 .946.266 1.63.267.686.775 1.06.507.372 1.253.372zm7.685-12.116h3.025V0h-3.025v-14.545zM55.256.213q-1.684 0-2.894-.685-1.211-.686-1.865-1.946-.653-1.261-.653-2.987 0-1.683.653-2.954.654-1.272 1.843-1.982 1.19-.71 2.795-.71 1.08 0 2.013.344.934.345 1.634 1.034.7.689 1.09 1.73.39 1.04.39 2.432v.83h-9.21v-1.874h6.363q0-.654-.284-1.158-.284-.504-.785-.792-.5-.288-1.161-.288-.69 0-1.218.316-.53.316-.828.846-.298.529-.305 1.175v1.783q0 .81.302 1.399.301.59.855.909.554.32 1.314.32.505 0 .924-.143.419-.142.717-.426.298-.284.455-.696l2.798.185q-.213 1.009-.87 1.758-.657.75-1.69 1.165-1.034.415-2.383.415zM70.007 0h-3.075v-14.545h5.738q1.648 0 2.817.585 1.168.586 1.782 1.655.615 1.07.615 2.511 0 1.449-.625 2.49-.625 1.04-1.808 1.594t-2.859.554H68.75v-2.472h3.345q.88 0 1.463-.241.583-.242.87-.725.288-.483.288-1.2 0-.724-.288-1.222-.287-.497-.873-.756-.586-.26-1.474-.26h-2.074V0zm1.463-6.62h3.317L78.402 0h-3.395L71.47-6.62zm17.571 1.258v-9.183h3.075V-5.1q0 1.59-.756 2.784-.756 1.193-2.113 1.857-1.356.664-3.16.664-1.811 0-3.168-.664-1.356-.664-2.11-1.857-.752-1.194-.752-2.784v-9.446h3.075v9.183q0 .83.366 1.477.366.646 1.033 1.016.668.369 1.556.369.895 0 1.559-.37.664-.369 1.03-1.015.365-.646.365-1.477zm14.709-9.183h3.061V0h-2.656l-6.328-9.155h-.107V0h-3.075v-14.545h2.699l6.278 9.147h.128v-9.147zm19.254 6.747l-2.77.17q-.07-.355-.305-.643-.234-.287-.614-.461-.38-.174-.906-.174-.703 0-1.186.294-.483.295-.483.785 0 .39.313.66.312.27 1.072.434l1.974.398q1.591.326 2.373 1.05.78.725.78 1.904 0 1.073-.628 1.882-.628.81-1.718 1.261-1.09.451-2.511.451-2.166 0-3.448-.905-1.282-.906-1.502-2.469l2.975-.156q.135.66.654 1.005.518.345 1.328.345.795 0 1.282-.31.486-.308.494-.798-.008-.412-.348-.679-.341-.266-1.052-.408l-1.889-.376q-1.598-.32-2.376-1.108-.777-.789-.777-2.01 0-1.051.572-1.811.571-.76 1.612-1.172 1.04-.412 2.44-.412 2.066 0 3.256.873 1.19.874 1.388 2.38zm1.392-3.111h6.57v2.273h-6.57v-2.273zm1.492 7.954v-10.568h3.025v10.17q0 .42.128.65.128.231.359.324.23.092.536.092.213 0 .426-.039l.327-.06.476 2.251q-.227.071-.64.167-.411.096-1 .117-1.095.043-1.915-.291-.82-.334-1.275-1.037-.454-.703-.447-1.776zM136.044.206q-1.044 0-1.86-.366-.818-.366-1.29-1.086-.472-.721-.472-1.8 0-.91.334-1.528.333-.618.909-.994.575-.377 1.31-.568.735-.192 1.545-.27.952-.1 1.534-.188.582-.09.845-.267.263-.177.263-.525v-.043q0-.675-.423-1.044-.422-.37-1.196-.37-.817 0-1.3.36-.483.358-.64.898l-2.798-.228q.213-.994.838-1.722t1.616-1.122q.991-.394 2.298-.394.909 0 1.743.213.835.213 1.485.66.65.448 1.026 1.147.376.7.376 1.673V0h-2.869v-1.513h-.085q-.263.512-.703.899-.44.387-1.058.603-.618.217-1.428.217zm.867-2.088q.667 0 1.178-.266.512-.267.803-.721.291-.455.291-1.03v-1.158q-.142.093-.387.167-.245.075-.55.135-.306.06-.611.107-.305.046-.554.081-.533.078-.93.249-.398.17-.618.458-.22.288-.22.714 0 .618.45.94.451.324 1.148.324zm6.86-9.027h6.57v2.273h-6.57v-2.273zm1.492 7.954v-10.568h3.025v10.17q0 .42.128.65.128.231.359.324.23.092.536.092.213 0 .426-.039l.327-.06.476 2.251q-.227.071-.64.167-.411.096-1 .117-1.095.043-1.915-.291-.82-.334-1.275-1.037-.454-.703-.447-1.776zM157.166.213q-1.683 0-2.894-.685-1.21-.686-1.864-1.946-.654-1.261-.654-2.987 0-1.683.654-2.954.653-1.272 1.843-1.982t2.794-.71q1.08 0 2.014.344.934.345 1.633 1.034.7.689 1.09 1.73.391 1.04.391 2.432v.83h-9.211v-1.874h6.363q0-.654-.284-1.158-.284-.504-.785-.792-.5-.288-1.16-.288-.69 0-1.219.316-.529.316-.827.846-.299.529-.306 1.175v1.783q0 .81.302 1.399.302.59.856.909.554.32 1.314.32.504 0 .923-.143.42-.142.718-.426.298-.284.454-.696l2.798.185q-.213 1.009-.87 1.758-.657.75-1.69 1.165-1.033.415-2.383.415zM167.173 0h-3.025v-10.91h2.883v1.926h.128q.341-.96 1.136-1.513.796-.554 1.904-.554 1.122 0 1.91.557.789.558 1.052 1.51h.113q.334-.938 1.211-1.503.877-.564 2.077-.564 1.527 0 2.483.97.955.969.955 2.744V0h-3.018v-6.74q0-.91-.483-1.364-.483-.454-1.208-.454-.824 0-1.285.522-.462.522-.462 1.374V0h-2.933v-6.804q0-.803-.458-1.278-.458-.476-1.204-.476-.504 0-.906.252-.401.252-.635.703-.235.451-.235 1.055V0zm20.185.213q-1.683 0-2.894-.685-1.211-.686-1.865-1.946-.653-1.261-.653-2.987 0-1.683.653-2.954.654-1.272 1.843-1.982 1.19-.71 2.795-.71 1.08 0 2.014.344.934.345 1.633 1.034.7.689 1.09 1.73.391 1.04.391 2.432v.83h-9.212v-1.874h6.364q0-.654-.284-1.158-.284-.504-.785-.792-.5-.288-1.161-.288-.689 0-1.218.316-.53.316-.828.846-.298.529-.305 1.175v1.783q0 .81.302 1.399.302.59.856.909.554.32 1.314.32.504 0 .923-.143.419-.142.717-.426.299-.284.455-.696l2.798.185q-.213 1.009-.87 1.758-.657.75-1.69 1.165-1.034.415-2.383.415zm10.007-6.52V0h-3.026v-10.91h2.884v1.926h.128q.362-.952 1.214-1.51.853-.557 2.067-.557 1.136 0 1.982.497.845.497 1.314 1.417.468.92.468 2.191V0h-3.025v-6.406q.007-1.002-.512-1.566-.518-.565-1.427-.565-.611 0-1.076.263-.465.263-.725.763-.259.501-.266 1.204zm8.644-4.602h6.57v2.273h-6.57v-2.273zm1.491 7.954v-10.568h3.026v10.17q0 .42.127.65.128.231.36.324.23.092.535.092.213 0 .426-.039l.327-.06.476 2.251q-.227.071-.64.167-.411.096-1 .117-1.094.043-1.915-.291-.82-.334-1.275-1.037-.454-.703-.447-1.776z" transform="translate(145.3,119.5) translate(-106.6690340909091,0)"></path><path fill="#00ae75" d="M293 96.7V84.9H0v11.8l146.5 84.5z" fill-rule="evenodd" transform="translate(0,-0.3)"></path><path fill="#6fc173" d="M293 84.9L146.5.3 0 84.9l146.5 84.6z" fill-rule="evenodd" transform="translate(0,-0.3)"></path><path d="M110.9 95.1l6.3-3.7c-2.2-1-4.4-1.8-6.7-2.2-2.3-.5-4.5-.7-6.7-.6-2.2.1-4.3.3-6.3.9-2 .5-3.9 1.2-5.5 2.2-2.3 1.3-3.9 2.8-4.8 4.4-.9 1.5-1.1 3.2-.7 4.8.4 1.7 1.3 3.4 2.8 5 1.6 1.7 3.6 3.3 6.2 4.7 2.5 1.5 5.2 2.6 8 3.5 2.9.9 5.7 1.4 8.6 1.6 2.8.2 5.6.1 8.4-.5 2.7-.5 5.2-1.4 7.5-2.7 1.8-1.1 3.2-2.2 4.1-3.5.9-1.2 1.3-2.6 1.2-3.9-.1-1.4-.6-2.8-1.7-4.2-1-1.4-2.5-2.7-4.5-4.1l-6.4 3.7c2.1 1.5 3.3 2.9 3.6 4.4.2 1.5-.6 2.8-2.6 3.9-1.5.9-3.1 1.4-4.8 1.6-1.7.2-3.4.2-5.1 0-1.7-.3-3.4-.7-5.1-1.4-1.6-.6-3.2-1.3-4.6-2.1-1.6-.9-2.9-1.8-4-2.8-1.1-1-1.9-2-2.4-3-.4-1-.5-2-.1-3s1.3-1.9 2.7-2.7c.9-.5 1.8-.9 2.8-1.1 1.1-.3 2.2-.4 3.3-.4 1.1 0 2.2 0 3.3.2 1.2.2 2.2.5 3.2 1zm-.5-13.1l34.4 19.9 6.1-3.6-24.1-13.9h.1l31.4 9.7 5.1-2.9-17.1-18.3.1-.1 24.4 14.1 6.1-3.5-34.4-19.9-9.2 5.3 17 17.5h-.1l-30.6-9.6zm72.5-9.4L161.2 60l4.6-2.7c1.7-.9 3.3-1.5 4.9-1.8 1.6-.4 3.3-.4 4.9-.3 1.7.2 3.4.6 5.1 1.3 1.7.6 3.4 1.4 5.1 2.4 1.9 1.1 3.3 2.2 4.2 3.2.9 1 1.4 1.9 1.5 2.8.2.9 0 1.7-.6 2.4-.5.7-1.3 1.3-2.2 1.9l-5.8 3.4zm-34.7-12.4L182.7 80l12.8-7.4c2.3-1.3 3.8-2.7 4.6-4.2.8-1.5 1-3 .6-4.5-.4-1.6-1.4-3.1-2.9-4.7-1.6-1.5-3.6-3-6.2-4.5-2.8-1.6-5.6-2.8-8.4-3.7-2.9-.8-5.6-1.3-8.2-1.4-2.6-.1-5.1.1-7.5.6-2.3.6-4.5 1.4-6.4 2.5l-12.9 7.5z" fill="#006a46" fill-rule="evenodd" transform="translate(0,-0.3)"></path><path d="M.6 75l8.1 4.7 1.9-1.2-4.7-2.7c-.4-.2-.6-.4-.8-.6-.1-.2-.2-.4-.2-.5 0-.2.1-.3.2-.4l.3-.3.9-.3c.2 0 .5 0 .8.1.2.1.5.2.7.3.3.1.5.3.7.4l4.6 2.6L15 76l-4.5-2.6c-.3-.1-.5-.3-.7-.4-.2-.2-.4-.3-.5-.5-.1-.2-.1-.3 0-.5 0-.2.2-.3.4-.5.3-.1.6-.2.8-.3.3 0 .6 0 .8.1.3 0 .5.1.8.2.2.2.5.3.8.5l4.5 2.6 2-1.1-5.4-3.1c-.6-.3-1.1-.5-1.6-.7-.5-.1-.9-.2-1.4-.2-.4 0-.9.1-1.3.2s-.8.3-1.2.5c-.5.3-.7.6-.8 1-.1.3-.1.7.1 1-.7-.2-1.3-.2-1.9-.1-.6.1-1.1.2-1.5.5-.5.2-.8.5-.9.9-.1.3-.1.7.1 1.1h-.1L2.4 74 .6 75zm24.1-4.6l-5.7-6-1.9 1.1 4.1 4h-.1l-6.9-2.3-2 1.2 10.4 3.2zm-4.9-6.5l8.1 4.7 1.9-1.1-4.2-2.5c-.8-.5-1.3-.9-1.4-1.2-.2-.3 0-.7.6-1 .4-.2.9-.3 1.4-.2.5 0 1.1.3 1.8.7l4.5 2.6 1.9-1.1-4.9-2.9c-.5-.3-1-.5-1.5-.7-.5-.2-1-.3-1.4-.4-.5 0-1 0-1.5.1s-1 .3-1.5.6c-.4.2-.7.5-.9.9-.1.3-.1.7.1 1.1l-1.1-.6-1.9 1zm18.7-4.5l-1.8 1.1c.6.3 1.1.5 1.7.6.5.1 1 .1 1.6 0 .5 0 1-.1 1.5-.3.4-.2.9-.4 1.3-.6.4-.2.7-.5 1-.8.3-.2.5-.5.6-.8.1-.3 0-.6-.2-.9-.1-.3-.5-.6-1-1-.4-.2-.8-.3-1.1-.4-.4-.1-.8-.1-1.2-.1-.4.1-.7.1-1.1.2-.4.1-.7.2-1.1.3-.3.1-.7.2-1 .4-.3.1-.6.2-.9.2-.3.1-.5.2-.8.2-.2 0-.5-.1-.7-.2-.1-.1-.2-.2-.2-.3-.1-.1-.1-.2 0-.3 0-.1.1-.2.2-.2.1-.1.3-.2.4-.3.3-.2.7-.3 1.1-.3.4-.1.8 0 1.3.2l1.8-1c-.5-.3-1.1-.5-1.6-.6-.5 0-1-.1-1.5 0-.4 0-.9.1-1.3.3-.5.1-.9.3-1.3.5-.3.3-.7.5-1 .8-.2.2-.4.5-.5.8-.1.2-.1.5.1.8.1.3.5.6 1 .9.3.2.7.3 1.1.4.3.1.7.1 1.1.1.3-.1.7-.1 1.1-.2.3-.1.7-.2 1.1-.3.8-.3 1.5-.6 2-.7.6-.1 1-.1 1.4.1.2.1.3.3.3.4.1.1.1.2 0 .3 0 .2-.1.3-.2.4-.1.1-.2.2-.4.2-.1.2-.4.2-.6.3-.2.1-.4.1-.7.1-.2.1-.5 0-.7 0-.3-.1-.5-.2-.8-.3zM49 54.7c-.3.2-.7.3-1 .3-.4.1-.8.1-1.1 0-.4 0-.7-.1-1.1-.3-.4-.1-.7-.3-1.1-.5-.3-.2-.6-.4-.8-.6-.3-.2-.5-.4-.6-.6-.1-.2-.1-.5-.1-.7.1-.2.3-.4.6-.5.3-.2.6-.3 1-.4.4 0 .7 0 1.1.1.4 0 .8.1 1.1.3.4.1.8.3 1.1.5.3.2.6.4.8.6.3.2.5.4.6.6.1.2.1.4 0 .6 0 .2-.2.4-.5.6zm-10.2-1.8l10.9 6.3 1.9-1.1-3.8-2.2c.7.1 1.3.1 1.8 0 .6-.1 1.1-.3 1.5-.5.6-.3.9-.6 1-1 .2-.3.2-.7.1-1.1-.1-.3-.4-.7-.8-1.1-.3-.3-.8-.7-1.3-1-.6-.3-1.2-.6-1.9-.8-.6-.3-1.3-.4-1.9-.5-.7-.1-1.3-.1-2 0-.6.1-1.2.3-1.7.6s-.8.6-.9.9c-.2.3-.2.7 0 1.1l-1-.6-1.9 1zm8.3-4.7l8 4.6 2-1.1-3.7-2.1-.9-.6c-.2-.2-.4-.4-.5-.7-.1-.2-.1-.4 0-.6.2-.2.4-.5.7-.7.2 0 .3-.1.4-.2.2 0 .3-.1.4-.1l-2.1-1.2c-.2.1-.3.1-.5.2s-.4.3-.5.5c-.2.2-.3.3-.3.5-.1.2-.1.5 0 .7l.3.6-1.5-.9-1.8 1.1zm6-4.9l-1.9-1.1-1.9 1.1 1.8 1.1 2-1.1zm-.7 1.8l8.1 4.7 1.9-1.1-8.1-4.7-1.9 1.1zm3.4-2l8.1 4.7 1.9-1.1-4.2-2.5c-.8-.4-1.3-.8-1.4-1.2-.2-.3 0-.6.6-.9.4-.3.9-.4 1.4-.3.5.1 1.1.3 1.8.7l4.5 2.6 1.9-1.1-4.9-2.9c-.5-.2-1-.5-1.5-.7-.5-.2-1-.3-1.4-.3-.5-.1-1-.1-1.5 0s-1 .3-1.5.6c-.4.2-.7.5-.9.9-.1.3-.1.7.1 1.1l-1.2-.6-1.8 1zm17.4-2.9c-.3.2-.6.3-.9.3-.4 0-.7 0-1.1-.1-.3 0-.7-.1-1-.3-.3-.1-.6-.2-.9-.4-.3-.2-.6-.4-.8-.6-.2-.1-.4-.3-.5-.5V38c.1-.2.3-.4.5-.5.3-.2.7-.3 1-.4.4 0 .7 0 1.1.1.3 0 .7.1 1 .3.4.1.7.3 1 .5.3.1.6.3.8.5.2.2.3.4.4.6.1.2.1.4 0 .6-.1.2-.3.3-.6.5zm4.9-1.2l-7.6-4.4-1.8 1.1 1.1.6c-.7-.1-1.4-.1-1.9 0-.5 0-1 .2-1.5.5s-.8.6-1 .9c-.1.4-.1.7 0 1.1.1.3.3.7.7 1 .3.4.8.7 1.3 1 .5.3 1.1.6 1.7.8.6.2 1.2.4 1.8.5.7 0 1.3 0 1.9-.1.5-.1 1.1-.3 1.6-.6.4-.2.7-.5.9-.8.2-.4.2-.7 0-1.1l1.1.6c.5.3.9.7 1 1 .1.4-.1.7-.6 1-.3.2-.7.4-1.2.4-.4.1-.8 0-1.3-.2l-1.9 1.1c.4.3.9.4 1.5.5.5.1 1 .1 1.5.1.5-.1 1-.2 1.4-.3.5-.2.9-.4 1.2-.6.8-.4 1.3-.9 1.6-1.3.2-.4.3-.8.1-1.1-.1-.4-.3-.7-.6-1-.4-.3-.7-.5-1-.7zm-3.2-3.6l1.9 1.1 4.1-2.3-1.9-1.1zM86.7 30c.4.1.6.4.9.6.2.2.4.4.5.6.1.2.2.4.1.6-.1.2-.2.4-.5.6-.3.1-.6.2-1 .3h-1.1c-.3-.1-.7-.2-1.1-.4-.4-.1-.7-.3-1-.5-.4-.2-.7-.4-.9-.6-.3-.2-.5-.4-.6-.6-.1-.2-.1-.5 0-.7.1-.2.2-.3.5-.5s.6-.3 1-.3h1c.4.1.8.2 1.1.3.4.2.8.4 1.1.6zm-12.2-1.2l11.1 6.4 1.9-1-1.1-.6h.1c.6.1 1.2.1 1.8 0 .6-.1 1.2-.3 1.7-.6.3-.2.6-.5.8-.8.1-.3.2-.6.1-1 0-.3-.3-.7-.6-1.1-.4-.4-.9-.8-1.7-1.3-.7-.4-1.4-.7-2.1-.9-.7-.2-1.4-.3-2-.4-.6 0-1.2 0-1.7.1s-1 .3-1.3.5c-.4.2-.8.5-1 .8-.2.4-.2.8 0 1.1l-4.1-2.3-1.9 1.1zm17.1-1.6c-.4-.2-.7-.4-.9-.6-.3-.2-.5-.5-.6-.7-.1-.2-.1-.4 0-.6 0-.2.2-.4.6-.6.3-.2.6-.3 1-.3.4-.1.7-.1 1.1 0 .4.1.8.2 1.1.3.4.2.7.3 1 .5.4.2.7.4.9.6.3.2.4.4.6.6.1.3.1.5 0 .7-.1.2-.3.4-.6.6-.3.2-.6.3-1 .3-.4.1-.7 0-1.1 0-.4-.1-.8-.2-1.1-.3-.4-.2-.7-.3-1-.5zm-2 1.1c.7.3 1.4.6 2 .8.7.2 1.4.4 2.1.4.7 0 1.4 0 2-.2.6-.1 1.2-.4 1.8-.7.5-.3.9-.6 1.2-1 .2-.4.3-.8.3-1.1-.1-.4-.3-.8-.6-1.2-.4-.4-.9-.8-1.5-1.2-.7-.4-1.3-.7-2-.9-.7-.2-1.4-.3-2.1-.3-.7 0-1.4 0-2 .2-.7.1-1.3.3-1.8.6-.6.4-1 .7-1.2 1.1-.2.3-.3.7-.3 1.1.1.4.3.8.6 1.2.4.4.9.8 1.5 1.2zm10.2-5.9l-.9-.6c-.2-.2-.4-.4-.5-.6-.1-.2-.1-.5-.1-.7.1-.2.3-.4.6-.6.3-.2.7-.3 1.1-.3h1.1c.3.1.7.2 1.1.3.3.2.7.4 1 .5l.9.6c.2.2.4.5.5.7.1.2.1.4.1.6-.1.2-.3.4-.6.6-.4.2-.7.3-1.1.4-.3 0-.7 0-1.1-.1-.3 0-.7-.2-1.1-.3-.3-.1-.7-.3-1-.5zm-1.9 1.1c.6.4 1.3.7 2 .9.7.2 1.4.3 2.1.3.6.1 1.3 0 1.9-.1.7-.2 1.3-.4 1.8-.7.6-.3 1-.7 1.2-1.1.3-.3.4-.7.3-1.1 0-.4-.2-.8-.6-1.2-.3-.4-.8-.8-1.5-1.2-.6-.3-1.3-.6-2-.8-.7-.2-1.4-.3-2.1-.4-.7 0-1.3 0-2 .2-.6.1-1.2.4-1.8.7-.5.3-.9.6-1.1 1-.3.4-.4.8-.3 1.2 0 .4.2.7.6 1.2.3.4.8.7 1.5 1.1zm6.8-8.6l-2.4-1.4-1.9 1.1 2.4 1.4-1.1.7 1.5.8 1.1-.6 4.8 2.7c.4.2.8.4 1.1.5.4 0 .7.1 1.1 0 .3 0 .6-.1 1-.2.3-.2.6-.3.9-.5.2-.1.3-.2.5-.3.2-.1.4-.3.5-.4l-1.7-1-.2.2c-.1.1-.2.2-.3.2-.4.2-.6.3-.9.3-.2 0-.5-.1-.9-.4l-4-2.3 1.4-.8-1.4-.8-1.5.8zm7.1-1.2l-2.4-1.3-2.1 1.2 2.4 1.4 2.1-1.3zm1 3.1l2.4 1.3 2.1-1.2-2.4-1.4-2.1 1.3zm-2-5.4l8.1 4.6 1.9-1.1-3.6-2.1c-.4-.2-.7-.4-1-.6-.2-.2-.4-.4-.5-.7 0-.2 0-.4.1-.6.1-.2.3-.4.7-.7.1 0 .2-.1.4-.1.1-.1.2-.2.3-.2l-2-1.2c-.2.1-.4.1-.5.2-.3.1-.5.3-.6.5-.1.2-.2.3-.3.5v.7c.1.2.2.4.4.6h-.1l-1.5-.9-1.8 1.1zm19.9-2.2l-8.1-4.6-1.9 1.1 4.2 2.4c.9.5 1.3.9 1.4 1.2.2.4 0 .7-.5 1-.5.3-1 .4-1.5.3-.5-.1-1.1-.3-1.8-.7L118 7.2l-1.9 1.2 4.9 2.8c.5.3 1 .5 1.5.7.5.2 1 .4 1.5.4.4.1.9 0 1.4-.1.5-.1 1-.3 1.5-.6.4-.2.7-.5.9-.8.1-.4.1-.7-.1-1.1v-.1l1.2.7 1.8-1.1zm-6.6-5.5l8 4.7 2-1.1-4.3-2.5c-.8-.4-1.3-.8-1.4-1.2-.1-.3.1-.7.6-1 .5-.2 1-.3 1.5-.2.5.1 1.1.3 1.7.7l4.6 2.6 1.9-1.1-5-2.9c-.5-.2-1-.5-1.4-.7-.5-.2-1-.3-1.5-.4-.5 0-.9 0-1.4.1-.5.1-1 .3-1.5.6-.4.2-.7.5-.9.9-.2.3-.2.7.1 1.1h-.1l-1.1-.6-1.8 1z" transform="translate(137.3,77) scale(.9,.9) translate(-200,-58) translate(200,58)" fill="#006a46" fill-rule="evenodd"></path></g></g><script><![CDATA[/*
 KeyshapeJS v1.1.0 (c) 2018-2019 Pixofield Ltd | pixofield.com/keyshapejs/mit-license */
window.KeyshapeJS=function(){function t(a){return"undefined"!==typeof a}function x(a,b){return a&&0==a.indexOf(b)}function H(a){if(!isFinite(a))throw Error("Non-finite value");}function R(a){if(14>=a)return 16;var b=S[a];b||(b=t(ca[a])?0|(a.toLowerCase().indexOf("color")==a.length-5?48:0):1);return b}function K(a){return 0<=a?Math.pow(a,1/3):-Math.pow(-a,1/3)}function da(a,b,c,d){if(0==a)return 0==b?b=-d/c:(a=Math.sqrt(c*c-4*b*d),d=(-c+a)/(2*b),0<=d&&1>=d?b=d:(d=(-c-a)/(2*b),b=0<=d&&1>=d?d:0)),b;
var e=c/a-b*b/(a*a)/3;c=b*b*b/(a*a*a)/13.5-b*c/(a*a)/3+d/a;var n=c*c/4+e*e*e/27;b=-b/(3*a);if(0>=n){if(0==e&&0==c)return-K(d/a);a=Math.sqrt(c*c/4-n);d=Math.acos(-c/2/a);c=Math.cos(d/3);d=Math.sqrt(3)*Math.sin(d/3);a=K(a);e=2*a*c+b;if(0<=e&&1>=e)return e;e=-a*(c+d)+b;if(0<=e&&1>=e)return e;e=a*(d-c)+b;if(0<=e&&1>=e)return e}else{a=K(-c/2+Math.sqrt(n));c=K(-c/2-Math.sqrt(n));d=a+c+b;if(0<=d&&1>=d)return d;d=-(a+c)/2+b;if(0<=d&&1>=d)return d}return 0}function ea(a,b){if(48==a&&"number"===typeof b)return"rgba("+
(b>>>24)+","+(b>>>16&255)+","+(b>>>8&255)+","+(b&255)/255+")";if(64==a)return b=b.map(function(a){return a+"px"}),b.join(",");if(96==a){a="";for(var c=b.length,d=0;d<c;d+=2)a+=b[d],a+=b[d+1].join(",");return a}if(80==a){if(0==b[0])return"none";a="";c=b.length;for(d=0;d<c;)a+=T[b[d]],1==b[d]?a+="("+b[d+1]+") ":5==b[d]?(a+="("+b[d+1]+"px "+b[d+2]+"px "+b[d+3]+"px rgba("+(b[d+4]>>>24)+","+(b[d+4]>>16&255)+","+(b[d+4]>>8&255)+","+(b[d+4]&255)/255+")) ",d+=3):a=2==b[d]?a+("("+b[d+1]+"px) "):7==b[d]?a+
("("+b[d+1]+"deg) "):a+("("+(0>b[d+1]?0:b[d+1])+") "),d+=2;return a}return 32==a?b+"px":b}function y(a){return 0>=a?0:255<=a?255:a}function fa(a,b,c,d){if(16==a||32==a)return(c-b)*d+b;if(0==a)return.5>d?b:c;if(48==a){if("number"===typeof b&&"number"===typeof c){var e=1-d;return(y(e*(b>>>24)+d*(c>>>24))<<24|y(e*(b>>>16&255)+d*(c>>>16&255))<<16|y(e*(b>>>8&255)+d*(c>>>8&255))<<8|y(e*(b&255)+d*(c&255)))>>>0}return.5>d?b:c}if(64==a){0==b.length&&(b=[0]);0==c.length&&(c=[0]);var n=b.length;b.length!=c.length&&
(n=b.length*c.length);var l=[];for(a=0;a<n;++a){var f=b[a%b.length];var h=(c[a%c.length]-f)*d+f;0>h&&(h=0);l.push(h)}return l}if(96==a){if(b.length!=c.length)return.5>d?b:c;n=b.length;l=[];for(a=0;a<n;a+=2){if(b[a]!==c[a])return.5>d?b:c;l[a]=b[a];l[a+1]=[];for(f=0;f<b[a+1].length;++f)l[a+1].push((c[a+1][f]-b[a+1][f])*d+b[a+1][f])}return l}if(80==a){n=b.length;if(n!=c.length)return.5>d?b:c;l=[];for(a=0;a<n;){if(b[a]!=c[a]||1==b[a])return.5>d?b:c;l[a]=b[a];l[a+1]=(c[a+1]-b[a+1])*d+b[a+1];if(5==b[a]){l[a+
2]=(c[a+2]-b[a+2])*d+b[a+2];l[a+3]=(c[a+3]-b[a+3])*d+b[a+3];e=1-d;var g=b[a+4],q=c[a+4];h=e*(g>>>24)+d*(q>>>24);var m=e*(g>>16&255)+d*(q>>16&255);f=e*(g>>8&255)+d*(q>>8&255);e=e*(g&255)+d*(q&255);l[a+4]=(y(m)<<16|y(f)<<8|y(e))+16777216*(y(h)|0);a+=3}a+=2}return l}return 0}function U(a,b){a:{var c=a+b[2];var d=b[4].length;for(var e=0;e<d;++e)if(c<b[4][e]){c=e;break a}c=d-1}d=b[2];e=b[4][c-1]-d;a=(a-e)/(b[4][c]-d-e);if(b[6]&&b[6].length>c-1)if(d=b[6][c-1],1==d[0])if(0>=a)a=0;else if(1<=a)a=1;else{e=
d[1];var n=d[3];a=da(3*e-3*n+1,-6*e+3*n,3*e,-a);a=3*a*(1-a)*(1-a)*d[2]+3*a*a*(1-a)*d[4]+a*a*a}else 2==d[0]?(d=d[1],a=Math.ceil(a*d)/d):3==d[0]&&(d=d[1],a=Math.floor(a*d)/d);return fa(b[1]&240,b[5][c-1],b[5][c],a)}function L(){u||(v=(new Date).getTime()+V)}function O(a){if(a||!E){for(var b=!1,c=0;c<w.length;++c)w[c].J(a)&&(b=!0);if(a)for(;0<I.length;)if(a=I.shift(),c=a[0],1==a[1])c.onfinish&&(c.onfinish(),b=!0),c.I();else if(2==a[1]&&c.onloop)c.onloop();return b}}function W(){L();O(!0)&&!u?(E=!0,M(W)):
E=!1}function N(){E||(E=!0,M(W))}function X(a,b){var c=[];a.split(b).forEach(function(a){c.push(parseFloat(a))});return c}function A(a){-1==a.indexOf(",")&&(a=a.replace(" ",","));return X(a,",")}function Y(a){a._ks||(a._ks={});if(!a._ks.transform){for(var b=a._ks.transform=[],c=0;14>=c;++c)b[c]=0;b[10]=1;b[11]=1;if(a=a.getAttribute("transform")){a=a.trim().split(") ");for(c=a.length-2;0<=c;--c)if(x(a[c],"translate(")){for(var d=0;d<c;d++)a.shift();break}c=a.shift();x(c,"translate(")&&(c=A(c.substring(10)),
b[1]=c[0],b[2]=t(c[1])?c[1]:0,c=a.shift());x(c,"rotate(")&&(c=A(c.substring(7)),b[6]=c[0],c=a.shift());x(c,"skewX(")&&(c=A(c.substring(6)),b[7]=c[0],c=a.shift());x(c,"skewY(")&&(c=A(c.substring(6)),b[8]=c[0],c=a.shift());x(c,"scale(")&&(c=A(c.substring(6)),b[10]=c[0],b[11]=t(c[1])?c[1]:c[0],c=a.shift());x(c,"translate(")&&(c=A(c.substring(10)),b[13]=c[0],b[14]=t(c[1])?c[1]:0)}}}function Z(a){this.l=a;this.A=[];this.C=[];this.v=0;this.s=this.a=this.c=null;this.h=this.f=this.g=0;this.b=1;this.i=this.F=
this.o=!1}function J(a,b,c){b=a[b];void 0===b&&(b=a[c]);return b}function ha(a){return Array.isArray(a)?a:x(a,"cubic-bezier(")?(a=a.substring(13,a.length-1).split(","),[1,parseFloat(a[0]),parseFloat(a[1]),parseFloat(a[2]),parseFloat(a[3])]):x(a,"steps(")?(a=a.substring(6,a.length-1).split(","),[a[1]&&"start"==a[1].trim()?2:3,parseFloat(a[0])]):[0]}function ia(a){a=a.trim();return x(a,"#")?(parseInt(a.substring(1),16)<<8)+255:x(a,"rgba(")?(a=a.substring(5,a.length-1),a=a.split(","),(parseInt(a[0],
10)<<24)+(parseInt(a[1],10)<<16)+(parseInt(a[2],10)<<8)+255*parseFloat(a[3])<<0):a}function aa(a){!1===a.i&&(w.push(a),a.i=!0,!1!==a.l.autoplay&&a.play());return this}function P(a){if(!0===a.i){a._cancel();var b=w.indexOf(a);-1<b&&w.splice(b,1);b=I.indexOf(a);-1<b&&I.splice(b,1);a.i=!1}return this}var Q=Error("Not in timeline list"),ba="mpath posX posY    rotate skewX skewY  scaleX scaleY  anchorX anchorY".split(" "),ja=" translate translate    rotate skewX skewY  scale scale  translate translate".split(" "),
T="none url blur brightness contrast drop-shadow grayscale hue-rotate invert opacity saturate sepia".split(" "),M=window.requestAnimationFrame||window.webkitRequestAnimationFrame||window.mozRequestAnimationFrame||window.oRequestAnimationFrame||window.msRequestAnimationFrame||null;M||(M=function(a){window.setTimeout(a,16)});var S={d:97,fill:48,fillOpacity:16,filter:80,height:33,opacity:16,offsetDistance:33,stroke:48,strokeDasharray:64,strokeDashoffset:32,strokeOpacity:16,strokeWidth:32,transform:1,
width:33},ca=window.getComputedStyle(document.documentElement),E=!1,v=(new Date).getTime(),u,V=0,w=[],I=[];Z.prototype={B:function(a){var b=0;if(null!==this.c){var c=this.j();0<this.b&&null!==c&&c>=this.f?this.h?(this.c=v-this.g/this.b,this.h--,b=2):(b=1,a?this.a=c:this.a=this.s?Math.max(this.s,this.f):this.f):0>this.b&&null!==c&&c<=this.g?this.h&&Infinity!=this.f?(this.c=v-this.f/this.b,this.h--,b=2):(this.h=0,b=1,a?this.a=c:this.a=this.s?Math.min(this.s,this.g):this.g):null!==c&&0!=this.b&&(a&&
null!==this.a&&(this.c=v-this.a/this.b),this.a=null)}this.s=this.j();return b},J:function(a){a&&(this.o&&(this.o=!1,null===this.c&&(0!=this.b&&null!==this.a?(this.c=v-this.a/this.b,this.a=null):this.c=v)),null===this.a&&null!==this.c&&(a=this.B(!1),0!=a&&I.push([this,a])));a=this.j();if(null===a)return!1;for(var b=this.A,c=this.C,d=0;d<b.length;++d){for(var e=b[d],n=!1,l=0;l<c[d].length;++l){var f=c[d][l],h=f[0];if(null!==h){var g=f[2];var q=f[4].length,m=f[4][q-1]-g;g=0==m?f[5][q-1]:a<=g?f[5][0]:
a>=g+f[3]?0==f[3]%m?f[5][q-1]:U(f[3]%m,f):U((a-g)%m,f);0==h?(e._ks.mpath=f[8],e._ks.transform[h]=g,n=!0):14>=h?(e._ks.transform[h]=g,n=!0):(g=ea(f[1]&240,g),f[1]&1?e.setAttribute(h,g):e.style[h]=g)}}if(n){Y(e);n=e._ks.transform;l="";if(f=e._ks.mpath)g=n[0],0>g&&(g=0),100<g&&(g=100),g=g*f[2]/100,h=f[1].getPointAtLength(g),l="translate("+h.x+","+h.y+") ",f[0]&&(.5>g?(g=h,h=f[1].getPointAtLength(.5)):g=f[1].getPointAtLength(g-.5),l+="rotate("+180*Math.atan2(h.y-g.y,h.x-g.x)/Math.PI+") ");for(f=1;f<n.length;++f)h=
n[f],h!=(10==f||11==f?1:0)&&(l+=" "+ja[f]+"(",l=2>=f?l+(1==f?h+",0":"0,"+h):13<=f?l+(13==f?h+",0":"0,"+h):10<=f?l+(10==f?h+",1":"1,"+h):l+h,l+=")");e.setAttribute("transform",l)}}return"running"==this.m()},I:function(){!1!==this.l.autoremove&&"finished"==this.m()&&P(this)},D:function(){if(!this.F){this.F=!0;for(var a=this.A,b=this.C,c=0;c<a.length;++c)for(var d=a[c],e=0;e<b[c].length;++e)14>=b[c][e][0]&&Y(d)}},u:function(a){if("number"==typeof a)return a;if(!t(this.l.markers)||!t(this.l.markers[a]))throw Error("Invalid marker: "+
a);return+this.l.markers[a]},play:function(a){t(a)&&null!==a&&(a=this.u(a),H(a),0>this.b&&a<this.g&&(a=this.g),0<this.b&&a>this.f&&(a=this.f),this.w(a,!0));if(!this.i)throw Q;a=this.j();if(0<this.b&&(null===a||a>=this.f))this.a=this.g;else if(0>this.b&&(null===a||a<=this.g)){if(Infinity==this.f)throw Error("Cannot seek to Infinity");this.a=this.f}else 0==this.b&&null===a&&(this.a=this.g);if(null===this.a)return this;this.c=null;this.o=!0;this.D();N();return this},pause:function(a){if(!this.i)throw Q;
t(a)&&(a=this.u(a),H(a));if("paused"!=this.m()){L();var b=this.j();if(null===b)if(0<=this.b)this.a=this.g;else{if(Infinity==this.f)throw Error("Cannot seek to Infinity");this.a=this.f}null!==this.c&&null===this.a&&(this.a=b);this.c=null;this.o=!1;this.B(!1);this.D();N()}t(a)&&this.w(a,!0);return this},range:function(a,b){if(0==arguments.length)return{"in":this.g,out:this.f};var c=this.u(a),d=this.v;t(b)&&(d=this.u(b));H(c);if(0>c||0>d||c>=d||isNaN(d))throw Error("Invalid range");var e=this.m();this.g=
c;this.f=d;"finished"==e&&"running"==this.m()&&this.play();return this},loop:function(a){if(!t(a))return{count:this.h};this.h=!0===a?Infinity:Math.floor(a);if(0>this.h||isNaN(this.h))this.h=0;return this},j:function(){return null!==this.a?this.a:null===this.c?null:(v-this.c)*this.b},w:function(a,b){b&&L();null!==a&&(this.D(),null!==this.a||null===this.c||0==this.b?(this.a=a,O(!1)):this.c=v-a/this.b,this.i||(this.c=null),this.s=null,this.B(!0),N())},G:function(){return this.j()},time:function(a){if(t(a)){if(!this.i)throw Q;
a=this.u(a);H(a);this.w(a,!0);return this}return this.G()},m:function(){var a=this.j();return this.o?"running":null===a?"idle":null===this.c?"paused":0<this.b&&a>=this.f||0>this.b&&a<=this.g?"finished":"running"},state:function(){return this.m()},duration:function(){return this.v},H:function(a){H(a);L();var b=this.j();this.b=a;null!==b&&this.w(b,!1)},rate:function(a){return t(a)?(this.H(a),this):this.b},marker:function(a){return t(this.l.markers)?this.l.markers[a]:void 0},_cancel:function(){if(!this.i||
"idle"==this.m())return this;this.c=this.a=null;this.o=!1;return this}};return{version:"1.1.0",animate:function(){var a={};if(1==arguments.length%2){a=arguments[arguments.length-1];var b={};for(c in a)b[c]=a[c];a=b}var c=new Z(a);a=arguments;for(var d=b=0;d<a.length-1;d+=2){var e=a[d];var n=e instanceof Element?e:document.getElementById(e.substring(1));if(!n)throw Error("Invalid target: "+e);e=n;n=a[d+1];e._ks||(e._ks={});for(var l=[],f=0;f<n.length;++f){var h=n[f],g=J(h,"p","property");if("string"!=
typeof g||-1!=g.indexOf("-")||""===g||!(0<S[g]||0<=ba.indexOf(g)))throw Error("Invalid property: "+g);var q=ba.indexOf(g);""!==g&&0<=q&&(g=q);q=R(g);var m=J(h,"t","times");if(!m||2>m.length)throw Error("Not enough times");m=m.slice();if(!isFinite(m[0])||0>m[0])throw Error("Invalid time: "+m[0]);for(var B=1;B<m.length;++B)if(!isFinite(m[B])||0>m[B]||m[B]<m[B-1])throw Error("Invalid time: "+m[B]);B=m[0];var v=m[m.length-1]-B,y=h.iterations||0;1>y&&(y=1);v*=y;b<v+B&&(b=v+B);var u=J(h,"v","values");if(!u||
u.length!=m.length)throw Error("Values do not match times");u=u.slice();for(var C=g,k=u,w=R(C)&240,p=0;p<k.length;++p)if(96==w){for(var G=k[p].substring(6,k[p].length-2).match(/[A-DF-Za-df-z][-+0-9eE., ]*/ig),A=[],r=0;r<G.length;++r){A.push(G[r][0]);for(var z=1<G[r].trim().length?G[r].substring(1).split(","):[],F=0;F<z.length;++F)z[F]=parseFloat(z[F]);A.push(z)}k[p]=A}else if(48==w)x(k[p],"#")?(G=9==k[p].length,k[p]=parseInt(k[p].substring(1),16),G||(k[p]=256*k[p]|255)):x(k[p],"url(")||"none"==k[p]||
(console.warn("unsupported color: "+k[p]),k[p]=0);else if(80==w){G=k;A=p;r=k[p];if("none"==r)r=[0];else{z=[];for(var D=r.indexOf("(");0<D;)if(F=T.indexOf(r.substring(0,D)),0<=F){z.push(F);var E=r.indexOf(") ");0>E&&(E=r.length-1);D=r.substring(D+1,E).split(" ");5==F?(z.push(parseFloat(D[0])),z.push(parseFloat(D[1])),z.push(parseFloat(D[2])),z.push(ia(D[3]))):1==F?z.push(D[0]):z.push(parseFloat(D[0]));r=r.substring(E+1).trim();D=r.indexOf("(")}else break;r=z}G[A]=r}else 64==w?"none"!=k[p]?/^[0-9 .]*$/.test(k[p])?
k[p]=X(k[p]," "):(console.warn("unsupported value: "+k[p]),k[p]=[0]):k[p]=[0]:32==w?(H(k[p]),k[p]=parseFloat(k[p])):0===C&&(k[p]=parseFloat(k[p]));C=J(h,"e","easing");k=m.length;for(C||(C=[]);C.length<k;)C.push([1,0,0,.58,1]);for(k=0;k<C.length;++k)C[k]=ha(C[k]);q=[g,q,B,v,m,u,C,y];m=J(h,"mp","motionPath");t(m)&&0===g&&(q[8]=[],q[8][0]=h.motionRotate,h=document.createElementNS("https://www.w3.org/2000/svg","path"),m||(m="M0,0"),h.setAttribute("d",m),q[8][1]=h,q[8][2]=h.getTotalLength());l.push(q)}0<
l.length&&(c.A.push(e),c.C.push(l))}c.v=b;c.g=0;c.f=c.v;aa(c);return c},add:aa,remove:P,removeAll:function(){for(var a=w.length-1;0<=a;--a)P(w[a]);return this},timelines:function(){return w.slice()},globalPlay:function(){u&&(V=u-(new Date).getTime(),u=void 0,N());return this},globalPause:function(){u||(u=v,O(!1));return this},globalState:function(){return u?"paused":"running"}}}();
]]></script><script><![CDATA[if(KeyshapeJS.version.indexOf('1.')!=0)throw Error('Expected KeyshapeJS v1.*.*');window.ks=document.ks=KeyshapeJS;(function(ks){
ks.animate("#anime-red",[{p:'mpath',t:[0,700],v:['0%','100%'],e:[[1,.4,0,1,1],[0]],mp:"M146.6,48.5C146.6,81.8,146.6,113.5,146.6,113.5"},{p:'opacity',t:[0,200],v:[0,1],e:[[1,.4,0,.6,1],[0]]}],
"#anime-yellow",[{p:'mpath',t:[700,1400],v:['0%','100%'],e:[[1,.4,0,.6,1],[0]],mp:"M146.6,36.7L146.6,101.7"},{p:'opacity',t:[700,900],v:[0,1],e:[[1,.4,0,.6,1],[0]]}],
"#anime-green",[{p:'mpath',t:[1400,2100],v:['0%','100%'],e:[[1,.4,0,.6,1],[0]],mp:"M146.5,25.5L146.5,90.5"},{p:'opacity',t:[1400,1600],v:[0,1],e:[[1,.4,0,.6,1],[0]]}],
{autoremove:false}).range(0,2100);
if(document.location.search.substr(1).split('&').indexOf('global=paused')>=0)ks.globalPause()})(KeyshapeJS);
]]></script></svg>