<svg xmlns="https://www.w3.org/2000/svg" xmlns:xlink="https://www.w3.org/1999/xlink" viewBox="0 0 1200 472"><style>.sans-serif{font-family:-apple-system,BlinkMacSystemFont,'avenir next', avenir,'helvetica neue',helvetica,ubuntu,roboto,noto,'segoe ui',arial,sans-serif}</style><defs><linearGradient id="Gradient-0" x1=".5" y1="0" x2=".5" y2="1"><stop offset="0" stop-color="#d0d8e1"></stop><stop offset="1" stop-color="#bac3cd"></stop></linearGradient><path id="path-2" d="M78 0l52 52v85.8c0 10.1-8.1 18.2-18.2 18.2H18.2C8.1 156 0 147.9 0 137.8V18.2C0 8.1 8.1 0 18.2 0H78z"></path></defs><g id="anime-dockerfile" opacity="0" transform="translate(157,206.5) translate(-74.1,-101.5)"><g fill="none" fill-rule="evenodd" transform="translate(9.1,47.1)"><use fill="url(#Gradient-0)" xlink:href="#path-2"></use><path d="M72.9 88.4h7.6v-6.9h-7.6v6.9zm-9.1 0h7.7v-6.9h-7.7v6.9zm-9 0h7.6v-6.9h-7.6v6.9zm-9 0h7.6v-6.9h-7.6v6.9zm-9.1 0h7.7v-6.9h-7.7v6.9zm9.1-8.2h7.6v-6.9h-7.6v6.9zm9 0h7.6v-6.9h-7.6v6.9zm9 0h7.7v-6.9h-7.7v6.9zm0-8.3h7.7V65h-7.7v6.9zm39.7 12.5c-1.7-1.1-5.5-1.5-8.5-.9-.4-2.8-1.9-5.2-4.7-7.4l-1.7-1-1 1.6c-1.4 2.1-2.1 4.9-1.9 7.7.1.9.4 2.7 1.4 4.2-1 .5-3 1.3-5.6 1.2H31.3l-.1.6c-.5 2.7-.5 11.4 5.2 18 4.3 5 10.7 7.6 19.1 7.6 18.2 0 31.7-8.3 38-23.4 2.4 0 7.8 0 10.5-5.2.1-.1.3-.4.7-1.4l.3-.6-1.5-1z" fill="#6c6c6c"></path></g><path d="M8.989 0h-7.22v-20.364h7.28q3.072 0 5.29 1.218 2.216 1.218 3.415 3.495 1.198 2.277 1.198 5.45 0 3.181-1.198 5.468-1.199 2.287-3.43 3.51Q12.09 0 8.988 0zM6.075-16.675v12.986H8.81q1.909 0 3.216-.681 1.308-.681 1.969-2.118.661-1.437.661-3.714 0-2.257-.661-3.689-.661-1.431-1.964-2.108-1.302-.676-3.211-.676H6.075zM28.955.298q-2.317 0-4.003-.99-1.685-.988-2.6-2.763t-.915-4.122q0-2.366.915-4.141t2.6-2.764q1.686-.99 4.003-.99 2.316 0 4.002.99 1.685.99 2.6 2.764.915 1.775.915 4.141 0 2.347-.915 4.122t-2.6 2.764q-1.686.99-4.002.99zm.02-3.281q1.053 0 1.76-.602.705-.601 1.068-1.645.363-1.044.363-2.377 0-1.332-.363-2.376-.363-1.044-1.069-1.65-.706-.607-1.76-.607-1.063 0-1.784.606-.721.607-1.084 1.651-.363 1.044-.363 2.376 0 1.333.363 2.377.363 1.044 1.084 1.645.72.602 1.784.602zM46.135.298q-2.346 0-4.032-.999-1.685-1-2.585-2.78-.9-1.779-.9-4.096 0-2.346.91-4.121.91-1.775 2.59-2.774 1.68-1 3.997-1 2 0 3.5.726 1.502.726 2.377 2.039.875 1.312.964 3.082H48.96q-.169-1.143-.89-1.844-.72-.701-1.884-.701-.984 0-1.715.532-.73.531-1.139 1.546-.407 1.014-.407 2.456 0 1.461.402 2.485.403 1.025 1.139 1.562.736.536 1.72.536.726 0 1.308-.298.581-.298.964-.87.383-.572.502-1.377h3.997q-.099 1.75-.95 3.077-.85 1.328-2.34 2.074-1.492.745-3.53.745zm16.188-7.895L59.52-4.395l.01-5.08h.616l4.892-5.798h4.863l-6.573 7.676h-1.004zM59.918 0h-4.236v-20.364h4.236V0zm10.27 0h-4.96l-4.495-6.652 2.824-2.993L70.189 0zm8.105.298q-2.357 0-4.052-.96-1.696-.959-2.61-2.724-.915-1.765-.915-4.18 0-2.357.915-4.137.914-1.78 2.58-2.774 1.665-.995 3.913-.995 1.51 0 2.818.483 1.308.482 2.287 1.446.98.965 1.527 2.422.547 1.456.547 3.405v1.163H72.406v-2.625h8.91q0-.914-.398-1.62-.398-.706-1.1-1.109-.7-.403-1.625-.403-.964 0-1.705.443-.74.442-1.158 1.183-.418.74-.428 1.646v2.495q0 1.134.423 1.96.422.824 1.198 1.272.775.447 1.84.447.705 0 1.292-.199.586-.198 1.004-.596.418-.398.636-.975l3.918.259q-.298 1.412-1.218 2.46-.92 1.05-2.366 1.632-1.447.581-3.336.581zM92.303 0h-4.236v-15.273h4.106v2.665h.16q.417-1.422 1.401-2.153.985-.73 2.267-.73.319 0 .686.04.368.04.647.109v3.758q-.298-.09-.825-.159-.527-.07-.965-.07-.935 0-1.665.403-.731.403-1.154 1.119-.422.716-.422 1.65V0zm6.76-15.273h9.427v3.182h-9.426v-3.182zM105.448 0h-4.225v-16.376q0-1.66.65-2.755.652-1.093 1.786-1.64 1.133-.547 2.575-.547.974 0 1.785.149.81.15 1.208.268l-.756 3.182q-.248-.08-.611-.149-.363-.07-.741-.07-.935 0-1.303.433-.368.433-.368 1.208V0zm9.864 0h-4.236v-15.273h4.236V0zm-2.098-17.241q-.945 0-1.62-.632-.677-.631-.677-1.516 0-.875.676-1.507.676-.631 1.611-.631.955 0 1.626.631.671.632.671 1.507 0 .885-.671 1.516-.671.632-1.616.632zm5.479-3.123h4.236V0h-4.236v-20.364zM133.268.298q-2.356 0-4.051-.96-1.696-.959-2.61-2.724-.915-1.765-.915-4.18 0-2.357.915-4.137.914-1.78 2.58-2.774 1.665-.995 3.912-.995 1.512 0 2.82.483 1.307.482 2.286 1.446.98.965 1.527 2.422.546 1.456.546 3.405v1.163h-12.896v-2.625h8.91q0-.914-.399-1.62-.397-.706-1.098-1.109-.701-.403-1.626-.403-.964 0-1.705.443-.741.442-1.159 1.183-.417.74-.427 1.646v2.495q0 1.134.422 1.96.423.824 1.199 1.272.775.447 1.84.447.705 0 1.292-.199.586-.198 1.004-.596.418-.398.636-.975l3.918.259q-.298 1.412-1.218 2.46-.92 1.05-2.367 1.632-1.446.581-3.336.581z" transform="translate(74.1,27.9) translate(-70.67613636363635,0)" fill="#2c2c2c"></path></g><g id="anime-container-1" fill="none" fill-rule="evenodd" opacity="0" transform="translate(830,165)"><rect id="anime-container-1-color" fill="#066da5" width="204" height="130" rx="6.5"></rect><path d="M110.1 61.8h13.5V49.5h-13.5v12.3zm-16 0h13.5V49.5H94.1v12.3zm-16 0h13.5V49.5H78.1v12.3zm-16 0h13.6V49.5H62.1v12.3zm-15.9 0h13.5V49.5H46.2v12.3zm15.9-14.7h13.6V34.8H62.1v12.3zm16 0h13.5V34.8H78.1v12.3zm16 0h13.5V34.8H94.1v12.3zm0-14.8h13.5V20H94.1v12.3zm70.2 22.3c-3-1.9-9.8-2.7-15-1.7-.7-4.9-3.4-9.2-8.4-13L138 38l-1.9 2.8c-2.4 3.7-3.7 8.9-3.3 13.8.2 1.7.8 4.8 2.6 7.5-1.8.9-5.3 2.3-9.9 2.2h-89l-.2 1c-.8 4.9-.8 20.3 9.2 32.1 7.6 9 19 13.6 33.9 13.6 32.2 0 56-14.8 67.2-41.8 4.4.1 13.8 0 18.7-9.2.1-.3.4-.8 1.2-2.6l.5-.9-2.7-1.9z" fill="#fff"></path><path d="M8.989 0h-7.22v-20.364h7.28q3.072 0 5.29 1.218 2.216 1.218 3.415 3.495 1.198 2.277 1.198 5.45 0 3.181-1.198 5.468-1.199 2.287-3.43 3.51Q12.09 0 8.988 0zM6.075-16.675v12.986H8.81q1.909 0 3.216-.681 1.308-.681 1.969-2.118.661-1.437.661-3.714 0-2.257-.661-3.689-.661-1.431-1.964-2.108-1.302-.676-3.211-.676H6.075zM28.955.298q-2.317 0-4.003-.99-1.685-.988-2.6-2.763t-.915-4.122q0-2.366.915-4.141t2.6-2.764q1.686-.99 4.003-.99 2.316 0 4.002.99 1.685.99 2.6 2.764.915 1.775.915 4.141 0 2.347-.915 4.122t-2.6 2.764q-1.686.99-4.002.99zm.02-3.281q1.053 0 1.76-.602.705-.601 1.068-1.645.363-1.044.363-2.377 0-1.332-.363-2.376-.363-1.044-1.069-1.65-.706-.607-1.76-.607-1.063 0-1.784.606-.721.607-1.084 1.651-.363 1.044-.363 2.376 0 1.333.363 2.377.363 1.044 1.084 1.645.72.602 1.784.602zM46.135.298q-2.346 0-4.032-.999-1.685-1-2.585-2.78-.9-1.779-.9-4.096 0-2.346.91-4.121.91-1.775 2.59-2.774 1.68-1 3.997-1 2 0 3.5.726 1.502.726 2.377 2.039.875 1.312.964 3.082H48.96q-.169-1.143-.89-1.844-.72-.701-1.884-.701-.984 0-1.715.532-.73.531-1.139 1.546-.407 1.014-.407 2.456 0 1.461.402 2.485.403 1.025 1.139 1.562.736.536 1.72.536.726 0 1.308-.298.581-.298.964-.87.383-.572.502-1.377h3.997q-.099 1.75-.95 3.077-.85 1.328-2.34 2.074-1.492.745-3.53.745zm16.188-7.895L59.52-4.395l.01-5.08h.616l4.892-5.798h4.863l-6.573 7.676h-1.004zM59.918 0h-4.236v-20.364h4.236V0zm10.27 0h-4.96l-4.495-6.652 2.824-2.993L70.189 0zm8.105.298q-2.357 0-4.052-.96-1.696-.959-2.61-2.724-.915-1.765-.915-4.18 0-2.357.915-4.137.914-1.78 2.58-2.774 1.665-.995 3.913-.995 1.51 0 2.818.483 1.308.482 2.287 1.446.98.965 1.527 2.422.547 1.456.547 3.405v1.163H72.406v-2.625h8.91q0-.914-.398-1.62-.398-.706-1.1-1.109-.7-.403-1.625-.403-.964 0-1.705.443-.74.442-1.158 1.183-.418.74-.428 1.646v2.495q0 1.134.423 1.96.422.824 1.198 1.272.775.447 1.84.447.705 0 1.292-.199.586-.198 1.004-.596.418-.398.636-.975l3.918.259q-.298 1.412-1.218 2.46-.92 1.05-2.366 1.632-1.447.581-3.336.581zM92.303 0h-4.236v-15.273h4.106v2.665h.16q.417-1.422 1.401-2.153.985-.73 2.267-.73.319 0 .686.04.368.04.647.109v3.758q-.298-.09-.825-.159-.527-.07-.965-.07-.935 0-1.665.403-.731.403-1.154 1.119-.422.716-.422 1.65V0zm20.602.298q-2.347 0-4.032-.999-1.686-1-2.585-2.78-.9-1.779-.9-4.096 0-2.346.91-4.121.91-1.775 2.59-2.774 1.68-1 3.997-1 1.999 0 3.5.726t2.376 2.039q.875 1.312.965 3.082h-3.997q-.17-1.143-.89-1.844-.721-.701-1.884-.701-.985 0-1.716.532-.73.531-1.138 1.546-.408 1.014-.408 2.456 0 1.461.403 2.485.403 1.025 1.138 1.562.736.536 1.72.536.726 0 1.308-.298.582-.298.965-.87.382-.572.502-1.377h3.997q-.1 1.75-.95 3.077-.85 1.328-2.341 2.074-1.492.745-3.53.745zm16.446 0q-2.317 0-4.002-.99-1.686-.988-2.6-2.763-.915-1.775-.915-4.122 0-2.366.915-4.141.914-1.775 2.6-2.764 1.685-.99 4.002-.99 2.317 0 4.002.99 1.685.99 2.6 2.764.915 1.775.915 4.141 0 2.347-.915 4.122t-2.6 2.764q-1.685.99-4.002.99zm.02-3.281q1.054 0 1.76-.602.706-.601 1.069-1.645t.363-2.377q0-1.332-.363-2.376-.363-1.044-1.07-1.65-.705-.607-1.76-.607-1.063 0-1.784.606-.72.607-1.084 1.651-.363 1.044-.363 2.376 0 1.333.363 2.377.363 1.044 1.084 1.645.72.602 1.785.602zm14.497-5.847V0h-4.236v-15.273h4.037v2.695h.179q.507-1.333 1.7-2.113t2.894-.78q1.59 0 2.774.695 1.183.696 1.84 1.984.656 1.288.656 3.068V0h-4.236v-8.969q.01-1.402-.716-2.192-.726-.79-1.999-.79-.855 0-1.506.367-.651.368-1.014 1.07-.363.7-.373 1.684zm12.1-6.443h9.198v3.182h-9.197v-3.182zm2.089 11.137v-14.796h4.236v14.239q0 .586.179.91.179.323.502.452.323.13.75.13.299 0 .597-.055l.457-.085.667 3.152q-.319.1-.895.234-.577.134-1.402.164-1.532.06-2.68-.408-1.148-.467-1.785-1.452-.636-.984-.626-2.485zM172.276.288q-1.462 0-2.606-.512-1.143-.512-1.804-1.521-.661-1.01-.661-2.52 0-1.273.467-2.138t1.273-1.392q.805-.527 1.834-.796 1.03-.268 2.163-.378 1.332-.139 2.147-.263.816-.125 1.184-.373.368-.249.368-.736v-.06q0-.944-.592-1.461-.592-.517-1.675-.517-1.144 0-1.82.502-.676.502-.895 1.258l-3.918-.319q.299-1.392 1.174-2.41.875-1.02 2.262-1.572t3.216-.552q1.273 0 2.442.299 1.168.298 2.078.924.91.627 1.436 1.606.527.98.527 2.342V0h-4.017v-2.118h-.119q-.368.716-.984 1.258-.617.542-1.482.845-.865.303-1.998.303zm1.213-2.923q.934 0 1.65-.373.716-.373 1.124-1.009.407-.636.407-1.442v-1.62q-.198.129-.541.233-.343.105-.771.189-.428.085-.855.15-.428.064-.776.114-.745.109-1.302.348-.557.238-.865.64-.309.404-.309 1 0 .865.632 1.318.631.452 1.606.452zM188.403 0h-4.235v-15.273h4.235V0zm-2.098-17.241q-.944 0-1.62-.632-.676-.631-.676-1.516 0-.875.676-1.507.676-.631 1.61-.631.955 0 1.626.631.671.632.671 1.507 0 .885-.67 1.516-.672.632-1.617.632zm9.715 8.411V0h-4.236v-15.273h4.037v2.695H196q.507-1.333 1.7-2.113t2.894-.78q1.59 0 2.774.695 1.183.696 1.84 1.984.656 1.288.656 3.068V0h-4.236v-8.969q.01-1.402-.716-2.192-.726-.79-1.999-.79-.855 0-1.506.367-.651.368-1.014 1.07-.363.7-.373 1.684zM216.155.298q-2.357 0-4.052-.96-1.695-.959-2.61-2.724-.915-1.765-.915-4.18 0-2.357.915-4.137.915-1.78 2.58-2.774 1.666-.995 3.913-.995 1.511 0 2.819.483 1.307.482 2.287 1.446.979.965 1.526 2.422.547 1.456.547 3.405v1.163h-12.897v-2.625h8.91q0-.914-.398-1.62-.398-.706-1.099-1.109-.7-.403-1.626-.403-.964 0-1.705.443-.74.442-1.158 1.183-.418.74-.428 1.646v2.495q0 1.134.423 1.96.422.824 1.198 1.272.776.447 1.84.447.705 0 1.292-.199.587-.198 1.004-.596.418-.398.637-.975l3.917.259q-.298 1.412-1.218 2.46-.92 1.05-2.366 1.632-1.447.581-3.336.581zM230.165 0h-4.236v-15.273h4.107v2.665h.159q.417-1.422 1.402-2.153.984-.73 2.267-.73.318 0 .686.04.368.04.646.109v3.758q-.298-.09-.825-.159-.527-.07-.965-.07-.934 0-1.665.403t-1.154 1.119q-.422.716-.422 1.65V0z" transform="translate(101.5,-32.2) translate(-117.84161931818184,0)" fill="#2c2c2c" fill-rule="nonzero"></path></g><g id="anime-container-2" fill="none" fill-rule="evenodd" opacity="0" transform="translate(870,205)"><rect id="anime-container-2-color" fill="#066da5" width="204" height="130" rx="6.5"></rect><path d="M110.1 61.8h13.5V49.5h-13.5v12.3zm-16 0h13.5V49.5H94.1v12.3zm-16 0h13.5V49.5H78.1v12.3zm-16 0h13.6V49.5H62.1v12.3zm-15.9 0h13.5V49.5H46.2v12.3zm15.9-14.7h13.6V34.8H62.1v12.3zm16 0h13.5V34.8H78.1v12.3zm16 0h13.5V34.8H94.1v12.3zm0-14.8h13.5V20H94.1v12.3zm70.2 22.3c-3-1.9-9.8-2.7-15-1.7-.7-4.9-3.4-9.2-8.4-13L138 38l-1.9 2.8c-2.4 3.7-3.7 8.9-3.3 13.8.2 1.7.8 4.8 2.6 7.5-1.8.9-5.3 2.3-9.9 2.2h-89l-.2 1c-.8 4.9-.8 20.3 9.2 32.1 7.6 9 19 13.6 33.9 13.6 32.2 0 56-14.8 67.2-41.8 4.4.1 13.8 0 18.7-9.2.1-.3.4-.8 1.2-2.6l.5-.9-2.7-1.9z" fill="#fff"></path></g><g id="anime-container1" fill="none" fill-rule="evenodd" opacity="0" transform="translate(910,245)"><rect fill="#066da5" width="204" height="130" rx="6.5"></rect><path d="M110.1 61.8h13.5V49.5h-13.5v12.3zm-16 0h13.5V49.5H94.1v12.3zm-16 0h13.5V49.5H78.1v12.3zm-16 0h13.6V49.5H62.1v12.3zm-15.9 0h13.5V49.5H46.2v12.3zm15.9-14.7h13.6V34.8H62.1v12.3zm16 0h13.5V34.8H78.1v12.3zm16 0h13.5V34.8H94.1v12.3zm0-14.8h13.5V20H94.1v12.3zm70.2 22.3c-3-1.9-9.8-2.7-15-1.7-.7-4.9-3.4-9.2-8.4-13L138 38l-1.9 2.8c-2.4 3.7-3.7 8.9-3.3 13.8.2 1.7.8 4.8 2.6 7.5-1.8.9-5.3 2.3-9.9 2.2h-89l-.2 1c-.8 4.9-.8 20.3 9.2 32.1 7.6 9 19 13.6 33.9 13.6 32.2 0 56-14.8 67.2-41.8 4.4.1 13.8 0 18.7-9.2.1-.3.4-.8 1.2-2.6l.5-.9-2.7-1.9z" fill="#fff"></path></g><g id="anime-docker-image" fill="none" fill-rule="evenodd" opacity="0" transform="translate(426,165)"><rect fill="#b3b3b3" width="204" height="130" rx="6.5"></rect><path d="M111.1 61.8h13.5V49.5h-13.5v12.3zm-16 0h13.5V49.5H95.1v12.3zm-16 0h13.5V49.5H79.1v12.3zm-16 0h13.6V49.5H63.1v12.3zm-15.9 0h13.5V49.5H47.2v12.3zm15.9-14.7h13.6V34.8H63.1v12.3zm16 0h13.5V34.8H79.1v12.3zm16 0h13.5V34.8H95.1v12.3zm0-14.8h13.5V20H95.1v12.3zm70.2 22.3c-3-1.9-9.8-2.7-15-1.7-.7-4.9-3.4-9.2-8.4-13L139 38l-1.9 2.8c-2.4 3.7-3.7 8.9-3.3 13.8.2 1.7.8 4.8 2.6 7.5-1.8.9-5.3 2.3-9.9 2.2h-89l-.2 1c-.8 4.9-.8 20.3 9.2 32.1 7.6 9 19 13.6 33.9 13.6 32.2 0 56-14.8 67.2-41.8 4.4.1 13.8 0 18.7-9.2.1-.3.4-.8 1.2-2.6l.5-.9-2.7-1.9z" fill="#fff"></path><path d="M8.989 0h-7.22v-20.364h7.28q3.072 0 5.29 1.218 2.216 1.218 3.415 3.495 1.198 2.277 1.198 5.45 0 3.181-1.198 5.468-1.199 2.287-3.43 3.51Q12.09 0 8.988 0zM6.075-16.675v12.986H8.81q1.909 0 3.216-.681 1.308-.681 1.969-2.118.661-1.437.661-3.714 0-2.257-.661-3.689-.661-1.431-1.964-2.108-1.302-.676-3.211-.676H6.075zM28.955.298q-2.317 0-4.003-.99-1.685-.988-2.6-2.763t-.915-4.122q0-2.366.915-4.141t2.6-2.764q1.686-.99 4.003-.99 2.316 0 4.002.99 1.685.99 2.6 2.764.915 1.775.915 4.141 0 2.347-.915 4.122t-2.6 2.764q-1.686.99-4.002.99zm.02-3.281q1.053 0 1.76-.602.705-.601 1.068-1.645.363-1.044.363-2.377 0-1.332-.363-2.376-.363-1.044-1.069-1.65-.706-.607-1.76-.607-1.063 0-1.784.606-.721.607-1.084 1.651-.363 1.044-.363 2.376 0 1.333.363 2.377.363 1.044 1.084 1.645.72.602 1.784.602zM46.135.298q-2.346 0-4.032-.999-1.685-1-2.585-2.78-.9-1.779-.9-4.096 0-2.346.91-4.121.91-1.775 2.59-2.774 1.68-1 3.997-1 2 0 3.5.726 1.502.726 2.377 2.039.875 1.312.964 3.082H48.96q-.169-1.143-.89-1.844-.72-.701-1.884-.701-.984 0-1.715.532-.73.531-1.139 1.546-.407 1.014-.407 2.456 0 1.461.402 2.485.403 1.025 1.139 1.562.736.536 1.72.536.726 0 1.308-.298.581-.298.964-.87.383-.572.502-1.377h3.997q-.099 1.75-.95 3.077-.85 1.328-2.34 2.074-1.492.745-3.53.745zm16.188-7.895L59.52-4.395l.01-5.08h.616l4.892-5.798h4.863l-6.573 7.676h-1.004zM59.918 0h-4.236v-20.364h4.236V0zm10.27 0h-4.96l-4.495-6.652 2.824-2.993L70.189 0zm8.105.298q-2.357 0-4.052-.96-1.696-.959-2.61-2.724-.915-1.765-.915-4.18 0-2.357.915-4.137.914-1.78 2.58-2.774 1.665-.995 3.913-.995 1.51 0 2.818.483 1.308.482 2.287 1.446.98.965 1.527 2.422.547 1.456.547 3.405v1.163H72.406v-2.625h8.91q0-.914-.398-1.62-.398-.706-1.1-1.109-.7-.403-1.625-.403-.964 0-1.705.443-.74.442-1.158 1.183-.418.74-.428 1.646v2.495q0 1.134.423 1.96.422.824 1.198 1.272.775.447 1.84.447.705 0 1.292-.199.586-.198 1.004-.596.418-.398.636-.975l3.918.259q-.298 1.412-1.218 2.46-.92 1.05-2.366 1.632-1.447.581-3.336.581zM92.303 0h-4.236v-15.273h4.106v2.665h.16q.417-1.422 1.401-2.153.985-.73 2.267-.73.319 0 .686.04.368.04.647.109v3.758q-.298-.09-.825-.159-.527-.07-.965-.07-.935 0-1.665.403-.731.403-1.154 1.119-.422.716-.422 1.65V0zm17.937 0h-4.236v-15.273h4.236V0zm-2.098-17.241q-.945 0-1.62-.632-.677-.631-.677-1.516 0-.875.676-1.507.676-.631 1.611-.631.955 0 1.626.631.671.632.671 1.507 0 .885-.671 1.516-.671.632-1.616.632zM117.857 0h-4.236v-15.273h4.037v2.695h.179q.477-1.342 1.59-2.118 1.114-.776 2.665-.776 1.571 0 2.675.78 1.104.781 1.472 2.114h.159q.467-1.313 1.695-2.103 1.228-.79 2.908-.79 2.138 0 3.476 1.357 1.337 1.357 1.337 3.843V0h-4.226v-9.436q0-1.273-.676-1.91-.676-.636-1.69-.636-1.154 0-1.8.731-.646.731-.646 1.924V0h-4.107v-9.526q0-1.123-.641-1.79-.642-.666-1.686-.666-.706 0-1.267.353-.562.353-.89.985-.328.631-.328 1.476V0zm25.653.288q-1.462 0-2.605-.512-1.144-.512-1.805-1.521-.661-1.01-.661-2.52 0-1.273.467-2.138.468-.865 1.273-1.392.805-.527 1.834-.796 1.03-.268 2.163-.378 1.333-.139 2.148-.263.815-.125 1.183-.373.368-.249.368-.736v-.06q0-.944-.592-1.461-.591-.517-1.675-.517-1.144 0-1.82.502-.676.502-.895 1.258l-3.917-.319q.298-1.392 1.173-2.41.875-1.02 2.262-1.572t3.217-.552q1.273 0 2.44.299 1.17.298 2.079.924.91.627 1.437 1.606.527.98.527 2.342V0h-4.017v-2.118h-.12q-.367.716-.984 1.258-.616.542-1.481.845-.866.303-2 .303zm1.213-2.923q.935 0 1.65-.373.716-.373 1.124-1.009.408-.636.408-1.442v-1.62q-.199.129-.542.233-.343.105-.77.189-.428.085-.856.15-.427.064-.775.114-.746.109-1.303.348-.557.238-.865.64-.308.404-.308 1 0 .865.631 1.318.632.452 1.606.452zm17.56 8.581q-2.059 0-3.525-.557-1.467-.557-2.332-1.501-.865-.945-1.123-2.098l3.917-.527q.18.417.567.79.388.373 1.03.612.64.238 1.565.238 1.382 0 2.282-.656.9-.656.9-2.158v-2.794h-.18q-.277.637-.834 1.204-.557.566-1.432.924-.875.358-2.088.358-1.72 0-3.127-.8-1.407-.8-2.238-2.456-.83-1.656-.83-4.191 0-2.595.845-4.335.846-1.74 2.253-2.606 1.406-.865 3.087-.865 1.283 0 2.148.433.865.432 1.397 1.074.532.641.82 1.258h.159v-2.566h4.206V.15q0 1.91-.955 3.197-.954 1.288-2.64 1.944-1.685.656-3.872.656zm.09-9.347q1.023 0 1.734-.512.711-.512 1.094-1.471.383-.96.383-2.302t-.378-2.332q-.378-.99-1.094-1.536-.716-.547-1.74-.547-1.044 0-1.76.562t-1.084 1.556q-.367.994-.367 2.297 0 1.322.372 2.282.373.96 1.084 1.481.711.522 1.755.522zM180.09.3q-2.357 0-4.052-.96-1.695-.96-2.61-2.725-.915-1.765-.915-4.18 0-2.357.915-4.137.915-1.78 2.58-2.774 1.666-.995 3.913-.995 1.511 0 2.819.483 1.307.482 2.287 1.446.98.965 1.526 2.422.547 1.456.547 3.405v1.163h-12.896v-2.625h8.909q0-.914-.398-1.62-.398-.706-1.099-1.109-.7-.403-1.626-.403-.964 0-1.705.443-.74.442-1.158 1.183-.418.74-.428 1.646v2.495q0 1.134.423 1.96.422.824 1.198 1.272.776.447 1.84.447.705 0 1.292-.199.587-.198 1.004-.596.418-.398.637-.975l3.917.259q-.298 1.412-1.218 2.46-.92 1.05-2.366 1.632-1.447.581-3.336.581z" transform="translate(102,-32.2) translate(-94.08735795454545,0)" fill="#2c2c2c" fill-rule="nonzero"></path></g><g transform="translate(248,210)"><path id="anime-arrow-line-1" d="M0 20.5s0 0 0 0" stroke="#455a64" stroke-width="15"></path><path id="anime-arrow-head-1" d="M156.2 23.2c2.3-1.5 2.3-3.9 0-5.4L131.4 2c-4.6-3-8.4-1-8.4 4.6v27.8c0 5.6 3.8 7.6 8.4 4.7l24.8-15.9z" fill="#455a64" opacity="0" transform="translate(-124,0) translate(0,0) translate(0,0)"></path></g><g transform="translate(656.4,210)"><path id="anime-arrow-line-2" d="M0 20.5s0 0 0 0" stroke="#455a64" stroke-width="15"></path><path id="anime-arrow-head-2" d="M156.2 23.2c2.3-1.5 2.3-3.9 0-5.4L131.4 2c-4.6-3-8.4-1-8.4 4.6v27.8c0 5.6 3.8 7.6 8.4 4.7l24.8-15.9z" fill="#455a64" opacity="0" transform="translate(-124,0) translate(0,0) translate(0,0)"></path></g><path d="M386.056 263.455h2.891V278h-3.075v-11.626h-.085l-3.331 2.088v-2.728l3.6-2.28zm-126 0h2.891V278h-3.075v-11.626h-.085l-3.331 2.088v-2.728l3.6-2.28z" fill="#9b9b9b" transform="translate(199,131.4) translate(-199,-150.9) translate(0,19.5)" id="anime-relationships2" opacity="0"></path><path d="M668.056 263.455h2.891V278h-3.075v-11.626h-.085l-3.331 2.088v-2.728l3.6-2.28zm122.904 0h3.06V278h-2.656l-6.328-9.155h-.107V278h-3.075v-14.545h2.7l6.277 9.147h.128v-9.147z" fill="#9b9b9b" transform="translate(400.5,131.4) translate(-400.5,-150.9) translate(0,19.5)" id="anime-relationships1" opacity="0"></path><path d="M10.39 2.545H8.045l.239-25.454h2.346l-.238 25.454zm6.553-17.052h-4.126q-.12-1.203-1.024-1.87-.905-.666-2.456-.666-1.054 0-1.78.294-.726.293-1.109.81-.383.517-.383 1.173-.02.547.234.955.254.408.701.7.447.294 1.034.508.587.214 1.253.363l1.83.437q1.332.299 2.445.796 1.114.497 1.93 1.223.815.726 1.267 1.71.453.985.463 2.257-.01 1.87-.95 3.237T13.567-.462q-1.764.75-4.25.75-2.466 0-4.29-.755-1.825-.756-2.844-2.243-1.02-1.486-1.07-3.683H5.28q.07 1.024.591 1.705.522.68 1.402 1.024.88.343 1.994.343 1.094 0 1.904-.318.81-.318 1.258-.885.447-.567.447-1.303 0-.686-.402-1.153-.403-.467-1.174-.796-.77-.328-1.884-.596L7.2-8.93q-2.575-.626-4.067-1.959-1.491-1.332-1.481-3.59-.01-1.849.989-3.23 1-1.383 2.75-2.158 1.75-.776 3.976-.776 2.268 0 3.963.776 1.695.775 2.64 2.157.944 1.382.974 3.202zM32.146.249q-1.74 0-3.147-.9-1.407-.9-2.227-2.655-.82-1.755-.82-4.31 0-2.625.845-4.37.845-1.746 2.252-2.616 1.407-.87 3.087-.87 1.283 0 2.143.433.86.432 1.392 1.074.532.641.81 1.258h.13v-7.657h4.226V0H36.66v-2.446h-.18q-.298.636-.84 1.258-.54.621-1.4 1.028-.86.408-2.093.408zm1.343-3.371q1.024 0 1.735-.562.71-.562 1.093-1.576t.383-2.376q0-1.363-.378-2.367-.377-1.004-1.093-1.551-.716-.547-1.74-.547-1.044 0-1.76.567t-1.084 1.57q-.368 1.005-.368 2.328 0 1.332.373 2.351.373 1.02 1.084 1.591.71.572 1.755.572zM51.207.298q-2.316 0-4.002-.99-1.685-.988-2.6-2.763t-.915-4.122q0-2.366.915-4.141t2.6-2.764q1.686-.99 4.002-.99 2.317 0 4.003.99 1.685.99 2.6 2.764.914 1.775.914 4.141 0 2.347-.914 4.122-.915 1.775-2.6 2.764-1.686.99-4.003.99zm.02-3.281q1.054 0 1.76-.602.706-.601 1.07-1.645.362-1.044.362-2.377 0-1.332-.363-2.376-.363-1.044-1.069-1.65-.706-.607-1.76-.607-1.064 0-1.785.606-.72.607-1.083 1.651t-.363 2.376q0 1.333.363 2.377.363 1.044 1.083 1.645.721.602 1.785.602zM68.39.298q-2.346 0-4.032-.999-1.685-1-2.585-2.78-.9-1.779-.9-4.096 0-2.346.91-4.121.91-1.775 2.59-2.774 1.68-1 3.997-1 1.999 0 3.5.726 1.502.726 2.377 2.039.875 1.312.964 3.082h-3.997q-.169-1.143-.89-1.844-.72-.701-1.884-.701-.984 0-1.715.532-.731.531-1.139 1.546-.407 1.014-.407 2.456 0 1.461.402 2.485.403 1.025 1.139 1.562.736.536 1.72.536.726 0 1.307-.298.582-.298.965-.87.383-.572.502-1.377h3.997q-.1 1.75-.95 3.077-.85 1.328-2.341 2.074-1.491.745-3.53.745zm16.188-7.895l-2.804 3.202.01-5.08h.616l4.892-5.798h4.862l-6.572 7.676h-1.004zM82.17 0h-4.235v-20.364h4.235V0zm10.272 0H87.48l-4.494-6.652 2.824-2.993L92.442 0zm8.103.298q-2.356 0-4.051-.96-1.696-.959-2.61-2.724-.915-1.765-.915-4.18 0-2.357.915-4.137.914-1.78 2.58-2.774 1.665-.995 3.912-.995 1.512 0 2.82.483 1.307.482 2.286 1.446.98.965 1.527 2.422.546 1.456.546 3.405v1.163H94.66v-2.625h8.91q0-.914-.399-1.62-.397-.706-1.098-1.109-.701-.403-1.626-.403-.964 0-1.705.443-.741.442-1.159 1.183-.417.74-.427 1.646v2.495q0 1.134.422 1.96.423.824 1.199 1.272.775.447 1.84.447.705 0 1.292-.199.586-.198 1.004-.596.418-.398.636-.975l3.918.259q-.298 1.412-1.218 2.46-.92 1.05-2.367 1.632-1.446.581-3.336.581zM114.555 0h-4.235v-15.273h4.106v2.665h.16q.417-1.422 1.401-2.153.985-.73 2.267-.73.318 0 .686.04.368.04.647.109v3.758q-.299-.09-.826-.159-.527-.07-.964-.07-.935 0-1.666.403-.73.403-1.153 1.119-.423.716-.423 1.65V0zm17.958 0h-4.176v-20.364h4.235v7.657h.13q.278-.617.81-1.258.532-.642 1.392-1.074.86-.433 2.143-.433 1.67 0 3.082.87t2.257 2.615q.846 1.746.846 4.37 0 2.556-.82 4.31-.821 1.756-2.228 2.656-1.407.9-3.147.9-1.233 0-2.093-.408-.86-.408-1.407-1.03-.547-.62-.835-1.257h-.19V0zm-.03-7.636q0 1.362.378 2.376.378 1.014 1.094 1.576.715.562 1.74.562 1.034 0 1.75-.572t1.088-1.59q.373-1.02.373-2.352 0-1.323-.368-2.327t-1.083-1.571q-.716-.567-1.76-.567-1.034 0-1.745.547-.711.547-1.09 1.551-.377 1.004-.377 2.367zm23.356 1.133v-8.77h4.236V0h-4.066v-2.774h-.16q-.517 1.342-1.715 2.158-1.198.815-2.918.815-1.531 0-2.695-.696-1.163-.696-1.814-1.979-.652-1.283-.662-3.072v-9.725h4.236v8.969q.01 1.352.726 2.138.716.785 1.92.785.765 0 1.431-.353t1.079-1.049q.412-.696.402-1.72zM167.692 0h-4.236v-15.273h4.236V0zm-2.098-17.241q-.945 0-1.621-.632-.676-.631-.676-1.516 0-.875.676-1.507.676-.631 1.61-.631.955 0 1.627.631.67.632.67 1.507 0 .885-.67 1.516-.672.632-1.616.632zm5.478-3.123h4.236V0h-4.236v-20.364zM184.317.25q-1.74 0-3.147-.9-1.407-.9-2.228-2.655-.82-1.755-.82-4.31 0-2.625.845-4.37.845-1.746 2.252-2.616 1.407-.87 3.088-.87 1.282 0 2.143.433.86.432 1.392 1.074.532.641.81 1.258h.13v-7.657h4.225V0h-4.176v-2.446h-.179q-.298.636-.84 1.258-.542.621-1.402 1.029-.86.408-2.093.408zm1.342-3.371q1.024 0 1.735-.562.711-.562 1.094-1.576.383-1.014.383-2.376 0-1.363-.378-2.367t-1.094-1.551q-.716-.547-1.74-.547-1.044 0-1.76.567t-1.084 1.57q-.368 1.005-.368 2.328 0 1.332.373 2.351.373 1.02 1.084 1.591.711.572 1.755.572zm17.54-6.92h9.287v3.36h-9.287v-3.36zm11.822-5.23h9.198v3.181h-9.198v-3.182zm2.088 11.136v-14.796h4.236v14.239q0 .586.18.91.178.323.501.452.323.13.751.13.298 0 .597-.055l.457-.085.666 3.152q-.318.1-.895.234-.576.134-1.402.164-1.531.06-2.68-.408-1.148-.467-1.784-1.452-.637-.984-.627-2.485zM237.702 0h-4.236v-15.273h4.037v2.695h.179q.477-1.342 1.59-2.118 1.114-.776 2.666-.776 1.57 0 2.674.78 1.104.781 1.472 2.114h.159q.467-1.313 1.695-2.103 1.228-.79 2.909-.79 2.137 0 3.475 1.357 1.337 1.357 1.337 3.843V0h-4.226v-9.436q0-1.273-.676-1.91-.676-.636-1.69-.636-1.154 0-1.8.731-.646.731-.646 1.924V0h-4.107v-9.526q0-1.123-.641-1.79-.641-.666-1.685-.666-.706 0-1.268.353t-.89.985q-.328.631-.328 1.476V0zm23.356 5.697q-.805 0-1.506-.124t-1.159-.303l.955-3.172q1.124.348 1.894.184.77-.164 1.218-1.198l.249-.647-5.479-15.71h4.455l3.162 11.216h.159l3.191-11.216 4.485.02-5.936 16.904q-.428 1.223-1.159 2.132-.73.91-1.844 1.412-1.114.502-2.685.502zm14.02-15.74h9.287v3.361h-9.287v-3.36zM292.21 0h-4.236v-15.273h4.236V0zm-2.098-17.241q-.944 0-1.62-.632-.677-.631-.677-1.516 0-.875.676-1.507.677-.631 1.611-.631.955 0 1.626.631.671.632.671 1.507 0 .885-.671 1.516-.671.632-1.616.632zM299.827 0h-4.236v-15.273h4.037v2.695h.179q.477-1.342 1.59-2.118 1.114-.776 2.666-.776 1.57 0 2.674.78 1.104.781 1.472 2.114h.159q.467-1.313 1.695-2.103 1.228-.79 2.909-.79 2.137 0 3.475 1.357 1.337 1.357 1.337 3.843V0h-4.226v-9.436q0-1.273-.676-1.91-.676-.636-1.69-.636-1.154 0-1.8.731-.646.731-.646 1.924V0h-4.107v-9.526q0-1.123-.641-1.79-.641-.666-1.685-.666-.706 0-1.268.353t-.89.985q-.328.631-.328 1.476V0zm25.653.288q-1.462 0-2.605-.512t-1.805-1.521q-.66-1.01-.66-2.52 0-1.273.466-2.138.468-.865 1.273-1.392.806-.527 1.835-.796 1.029-.268 2.162-.378 1.333-.139 2.148-.263.815-.125 1.183-.373.368-.249.368-.736v-.06q0-.944-.591-1.461-.592-.517-1.676-.517-1.143 0-1.82.502-.676.502-.894 1.258l-3.918-.319q.298-1.392 1.173-2.41.875-1.02 2.262-1.572t3.217-.552q1.273 0 2.441.299 1.168.298 2.078.924.91.627 1.437 1.606.527.98.527 2.342V0h-4.017v-2.118h-.12q-.367.716-.984 1.258-.616.542-1.481.845-.865.303-1.999.303zm1.213-2.923q.935 0 1.65-.373.717-.373 1.124-1.009.408-.636.408-1.442v-1.62q-.199.129-.542.233-.343.105-.77.189-.428.085-.856.15-.427.064-.775.114-.746.109-1.303.348-.557.238-.865.64-.308.404-.308 1 0 .865.631 1.318.632.452 1.606.452zm17.56 8.581q-2.058 0-3.525-.557t-2.332-1.501q-.865-.945-1.123-2.098l3.917-.527q.18.417.567.79.388.373 1.03.612.64.238 1.565.238 1.382 0 2.282-.656.9-.656.9-2.158v-2.794h-.179q-.278.637-.835 1.204-.557.566-1.432.924-.875.358-2.088.358-1.72 0-3.127-.8-1.407-.8-2.237-2.456-.83-1.656-.83-4.191 0-2.595.845-4.335.845-1.74 2.252-2.606 1.407-.865 3.087-.865 1.283 0 2.148.433.865.432 1.397 1.074.532.641.82 1.258h.16v-2.566h4.205V.15q0 1.91-.954 3.197-.955 1.288-2.64 1.944-1.686.656-3.873.656zm.09-9.347q1.023 0 1.734-.512.711-.512 1.094-1.471.383-.96.383-2.302t-.378-2.332q-.378-.99-1.094-1.536-.716-.547-1.74-.547-1.044 0-1.76.562T341.5-9.983q-.368.994-.368 2.297 0 1.322.373 2.282.372.96 1.083 1.481.711.522 1.755.522zM362.06.3q-2.356 0-4.052-.96-1.695-.96-2.61-2.725-.915-1.765-.915-4.18 0-2.357.915-4.137.915-1.78 2.58-2.774 1.666-.995 3.913-.995 1.511 0 2.819.483 1.307.482 2.287 1.446.98.965 1.526 2.422.547 1.456.547 3.405v1.163h-12.896v-2.625h8.909q0-.914-.398-1.62-.398-.706-1.099-1.109-.7-.403-1.625-.403-.965 0-1.706.443-.74.442-1.158 1.183-.418.74-.428 1.646v2.495q0 1.134.423 1.96.423.824 1.198 1.272.776.447 1.84.447.706 0 1.292-.199.587-.198 1.005-.596.417-.398.636-.975l3.918.259q-.299 1.412-1.219 2.46-.92 1.05-2.366 1.632-1.447.581-3.336.581zm18.743-.04q-.984 0-1.685-.701-.701-.701-.701-1.686 0-.974.7-1.67.702-.696 1.686-.696.955 0 1.67.696.716.696.716 1.67 0 .656-.333 1.198-.333.542-.87.865-.537.324-1.183.324z" transform="translate(331.7,402.9) translate(-192.48508522727275,0)" id="anime-docker-build" fill="#2c2c2c" opacity="0" fill-rule="nonzero"></path><path d="M10.39 2.545H8.045l.239-25.454h2.346l-.238 25.454zm6.553-17.052h-4.126q-.12-1.203-1.024-1.87-.905-.666-2.456-.666-1.054 0-1.78.294-.726.293-1.109.81-.383.517-.383 1.173-.02.547.234.955.254.408.701.7.447.294 1.034.508.587.214 1.253.363l1.83.437q1.332.299 2.445.796 1.114.497 1.93 1.223.815.726 1.267 1.71.453.985.463 2.257-.01 1.87-.95 3.237T13.567-.462q-1.764.75-4.25.75-2.466 0-4.29-.755-1.825-.756-2.844-2.243-1.02-1.486-1.07-3.683H5.28q.07 1.024.591 1.705.522.68 1.402 1.024.88.343 1.994.343 1.094 0 1.904-.318.81-.318 1.258-.885.447-.567.447-1.303 0-.686-.402-1.153-.403-.467-1.174-.796-.77-.328-1.884-.596L7.2-8.93q-2.575-.626-4.067-1.959-1.491-1.332-1.481-3.59-.01-1.849.989-3.23 1-1.383 2.75-2.158 1.75-.776 3.976-.776 2.268 0 3.963.776 1.695.775 2.64 2.157.944 1.382.974 3.202zM32.146.249q-1.74 0-3.147-.9-1.407-.9-2.227-2.655-.82-1.755-.82-4.31 0-2.625.845-4.37.845-1.746 2.252-2.616 1.407-.87 3.087-.87 1.283 0 2.143.433.86.432 1.392 1.074.532.641.81 1.258h.13v-7.657h4.226V0H36.66v-2.446h-.18q-.298.636-.84 1.258-.54.621-1.4 1.028-.86.408-2.093.408zm1.343-3.371q1.024 0 1.735-.562.71-.562 1.093-1.576t.383-2.376q0-1.363-.378-2.367-.377-1.004-1.093-1.551-.716-.547-1.74-.547-1.044 0-1.76.567t-1.084 1.57q-.368 1.005-.368 2.328 0 1.332.373 2.351.373 1.02 1.084 1.591.71.572 1.755.572zM51.207.298q-2.316 0-4.002-.99-1.685-.988-2.6-2.763t-.915-4.122q0-2.366.915-4.141t2.6-2.764q1.686-.99 4.002-.99 2.317 0 4.003.99 1.685.99 2.6 2.764.914 1.775.914 4.141 0 2.347-.914 4.122-.915 1.775-2.6 2.764-1.686.99-4.003.99zm.02-3.281q1.054 0 1.76-.602.706-.601 1.07-1.645.362-1.044.362-2.377 0-1.332-.363-2.376-.363-1.044-1.069-1.65-.706-.607-1.76-.607-1.064 0-1.785.606-.72.607-1.083 1.651t-.363 2.376q0 1.333.363 2.377.363 1.044 1.083 1.645.721.602 1.785.602zM68.39.298q-2.346 0-4.032-.999-1.685-1-2.585-2.78-.9-1.779-.9-4.096 0-2.346.91-4.121.91-1.775 2.59-2.774 1.68-1 3.997-1 1.999 0 3.5.726 1.502.726 2.377 2.039.875 1.312.964 3.082h-3.997q-.169-1.143-.89-1.844-.72-.701-1.884-.701-.984 0-1.715.532-.731.531-1.139 1.546-.407 1.014-.407 2.456 0 1.461.402 2.485.403 1.025 1.139 1.562.736.536 1.72.536.726 0 1.307-.298.582-.298.965-.87.383-.572.502-1.377h3.997q-.1 1.75-.95 3.077-.85 1.328-2.341 2.074-1.491.745-3.53.745zm16.188-7.895l-2.804 3.202.01-5.08h.616l4.892-5.798h4.862l-6.572 7.676h-1.004zM82.17 0h-4.235v-20.364h4.235V0zm10.272 0H87.48l-4.494-6.652 2.824-2.993L92.442 0zm8.103.298q-2.356 0-4.051-.96-1.696-.959-2.61-2.724-.915-1.765-.915-4.18 0-2.357.915-4.137.914-1.78 2.58-2.774 1.665-.995 3.912-.995 1.512 0 2.82.483 1.307.482 2.286 1.446.98.965 1.527 2.422.546 1.456.546 3.405v1.163H94.66v-2.625h8.91q0-.914-.399-1.62-.397-.706-1.098-1.109-.701-.403-1.626-.403-.964 0-1.705.443-.741.442-1.159 1.183-.417.74-.427 1.646v2.495q0 1.134.422 1.96.423.824 1.199 1.272.775.447 1.84.447.705 0 1.292-.199.586-.198 1.004-.596.418-.398.636-.975l3.918.259q-.298 1.412-1.218 2.46-.92 1.05-2.367 1.632-1.446.581-3.336.581zM114.555 0h-4.235v-15.273h4.106v2.665h.16q.417-1.422 1.401-2.153.985-.73 2.267-.73.318 0 .686.04.368.04.647.109v3.758q-.299-.09-.826-.159-.527-.07-.964-.07-.935 0-1.666.403-.73.403-1.153 1.119-.423.716-.423 1.65V0zm17.938 0h-4.236v-15.273h4.107v2.665h.159q.417-1.422 1.402-2.153.984-.73 2.267-.73.318 0 .686.04.368.04.646.109v3.758q-.298-.09-.825-.159-.527-.07-.965-.07-.934 0-1.665.403-.73.403-1.154 1.119-.422.716-.422 1.65V0zm17.003-6.503v-8.77h4.236V0h-4.067v-2.774h-.16q-.516 1.342-1.715 2.158-1.198.815-2.918.815-1.531 0-2.694-.696-1.164-.696-1.815-1.979-.651-1.283-.661-3.072v-9.725h4.236v8.969q.01 1.352.725 2.138.716.785 1.92.785.765 0 1.431-.353t1.079-1.049q.413-.696.403-1.72zm11.852-2.327V0h-4.236v-15.273h4.037v2.695h.18q.506-1.333 1.7-2.113 1.193-.78 2.893-.78 1.59 0 2.774.695 1.183.696 1.84 1.984.656 1.288.656 3.068V0h-4.236v-8.969q.01-1.402-.716-2.192-.726-.79-1.999-.79-.855 0-1.506.367-.651.368-1.014 1.07-.363.7-.373 1.684zm19.896-1.213h9.287v3.361h-9.287v-3.36zM198.376 0h-4.235v-15.273h4.235V0zm-2.098-17.241q-.944 0-1.62-.632-.676-.631-.676-1.516 0-.875.676-1.507.676-.631 1.61-.631.955 0 1.626.631.671.632.671 1.507 0 .885-.67 1.516-.672.632-1.617.632zm4.405 1.968h9.198v3.182h-9.198v-3.182zm2.088 11.137v-14.796h4.236v14.239q0 .586.18.91.178.323.501.452.323.13.75.13.3 0 .598-.055l.457-.085.666 3.152q-.318.1-.895.234t-1.402.164q-1.531.06-2.68-.408-1.148-.467-1.784-1.452-.637-.984-.627-2.485zM223.364 0h-4.236v-15.273h4.037v2.695h.179q.477-1.342 1.59-2.118 1.114-.776 2.665-.776 1.571 0 2.675.78 1.104.781 1.472 2.114h.159q.467-1.313 1.695-2.103 1.228-.79 2.909-.79 2.137 0 3.475 1.357 1.337 1.357 1.337 3.843V0h-4.226v-9.436q0-1.273-.676-1.91-.676-.636-1.69-.636-1.154 0-1.8.731-.646.731-.646 1.924V0h-4.107v-9.526q0-1.123-.641-1.79-.642-.666-1.686-.666-.706 0-1.267.353-.562.353-.89.985-.328.631-.328 1.476V0zm23.356 5.697q-.805 0-1.506-.124t-1.159-.303l.955-3.172q1.124.348 1.894.184.77-.164 1.218-1.198l.249-.647-5.479-15.71h4.455l3.162 11.216h.159l3.191-11.216 4.485.02-5.936 16.904q-.428 1.223-1.159 2.132-.73.91-1.844 1.412-1.114.502-2.685.502zm14.02-15.74h9.287v3.361h-9.287v-3.36zM277.872 0h-4.236v-15.273h4.236V0zm-2.098-17.241q-.944 0-1.62-.632-.677-.631-.677-1.516 0-.875.676-1.507.677-.631 1.611-.631.955 0 1.626.631.671.632.671 1.507 0 .885-.671 1.516-.671.632-1.616.632zM285.49 0h-4.236v-15.273h4.037v2.695h.179q.477-1.342 1.59-2.118 1.114-.776 2.665-.776 1.571 0 2.675.78 1.104.781 1.472 2.114h.159q.467-1.313 1.695-2.103 1.228-.79 2.909-.79 2.137 0 3.475 1.357 1.337 1.357 1.337 3.843V0h-4.226v-9.436q0-1.273-.676-1.91-.676-.636-1.69-.636-1.154 0-1.8.731-.646.731-.646 1.924V0H290.3v-9.526q0-1.123-.641-1.79-.642-.666-1.686-.666-.706 0-1.267.353-.562.353-.89.985-.328.631-.328 1.476V0zm25.653.288q-1.462 0-2.605-.512-1.144-.512-1.805-1.521-.661-1.01-.661-2.52 0-1.273.467-2.138.468-.865 1.273-1.392.805-.527 1.835-.796 1.029-.268 2.162-.378 1.333-.139 2.148-.263.815-.125 1.183-.373.368-.249.368-.736v-.06q0-.944-.592-1.461-.591-.517-1.675-.517-1.143 0-1.82.502-.676.502-.894 1.258l-3.918-.319q.298-1.392 1.173-2.41.875-1.02 2.262-1.572t3.217-.552q1.273 0 2.441.299 1.168.298 2.078.924.91.627 1.437 1.606.527.98.527 2.342V0h-4.017v-2.118h-.12q-.367.716-.984 1.258-.616.542-1.481.845-.865.303-1.999.303zm1.213-2.923q.935 0 1.65-.373.717-.373 1.124-1.009.408-.636.408-1.442v-1.62q-.199.129-.542.233-.343.105-.77.189-.428.085-.856.15-.427.064-.775.114-.746.109-1.303.348-.557.238-.865.64-.308.404-.308 1 0 .865.631 1.318.632.452 1.606.452zm17.56 8.581q-2.058 0-3.525-.557t-2.332-1.501q-.865-.945-1.123-2.098l3.917-.527q.18.417.567.79.388.373 1.03.612.64.238 1.565.238 1.382 0 2.282-.656.9-.656.9-2.158v-2.794h-.179q-.278.637-.835 1.204-.557.566-1.432.924-.875.358-2.088.358-1.72 0-3.127-.8-1.407-.8-2.237-2.456-.83-1.656-.83-4.191 0-2.595.844-4.335.846-1.74 2.253-2.606 1.407-.865 3.087-.865 1.283 0 2.148.433.865.432 1.397 1.074.532.641.82 1.258h.16v-2.566h4.205V.15q0 1.91-.954 3.197-.955 1.288-2.64 1.944-1.686.656-3.873.656zm.09-9.347q1.023 0 1.734-.512.711-.512 1.094-1.471.383-.96.383-2.302t-.378-2.332q-.378-.99-1.094-1.536-.716-.547-1.74-.547-1.044 0-1.76.562t-1.083 1.556q-.368.994-.368 2.297 0 1.322.372 2.282.373.96 1.084 1.481.711.522 1.755.522zM347.722.3q-2.357 0-4.052-.96-1.695-.96-2.61-2.725-.915-1.765-.915-4.18 0-2.357.915-4.137.915-1.78 2.58-2.774 1.666-.995 3.913-.995 1.511 0 2.819.483 1.307.482 2.287 1.446.98.965 1.526 2.422.547 1.456.547 3.405v1.163h-12.896v-2.625h8.909q0-.914-.398-1.62-.398-.706-1.099-1.109-.7-.403-1.625-.403-.965 0-1.706.443-.74.442-1.158 1.183-.418.74-.428 1.646v2.495q0 1.134.423 1.96.423.824 1.198 1.272.776.447 1.84.447.706 0 1.292-.199.587-.198 1.004-.596.418-.398.637-.975l3.917.259q-.298 1.412-1.218 2.46-.92 1.05-2.366 1.632-1.447.581-3.336.581z" transform="translate(660.1,402.9) translate(-177.9034090909091,0)" id="anime-docker-run" fill="#2c2c2c" opacity="0" fill-rule="nonzero"></path><script><![CDATA[/*
 KeyshapeJS v1.0.0 (c) 2018 Pixofield Ltd | pixofield.com/keyshapejs/mit-license */
window.KeyshapeJS=function(){function A(a){return"undefined"!==typeof a}function v(a,b){return a&&0==a.indexOf(b)}function H(a){if(!isFinite(a))throw Error("Non-finite value");}function Q(a){if(14>=a)return 16;var b=R[a];b||(b=A(ba[a])?0|(a.toLowerCase().indexOf("color")==a.length-5?48:0):1);return b}function J(a){return 0<=a?Math.pow(a,1/3):-Math.pow(-a,1/3)}function ca(a,b,c,d){if(0==a)return 0==b?b=-d/c:(a=Math.sqrt(c*c-4*b*d),d=(-c+a)/(2*b),0<=d&&1>=d?b=d:(d=(-c-a)/(2*b),b=0<=d&&1>=d?d:0)),b;
var e=c/a-b*b/(a*a)/3;c=b*b*b/(a*a*a)/13.5-b*c/(a*a)/3+d/a;var n=c*c/4+e*e*e/27;b=-b/(3*a);if(0>=n){if(0==e&&0==c)return-J(d/a);a=Math.sqrt(c*c/4-n);d=Math.acos(-c/2/a);c=Math.cos(d/3);d=Math.sqrt(3)*Math.sin(d/3);a=J(a);e=2*a*c+b;if(0<=e&&1>=e)return e;e=-a*(c+d)+b;if(0<=e&&1>=e)return e;e=a*(d-c)+b;if(0<=e&&1>=e)return e}else{a=J(-c/2+Math.sqrt(n));c=J(-c/2-Math.sqrt(n));d=a+c+b;if(0<=d&&1>=d)return d;d=-(a+c)/2+b;if(0<=d&&1>=d)return d}return 0}function da(a,b){if(48==a&&"number"===typeof b)return"#"+
("000000"+b.toString(16)).substr(-6);if(64==a)return b=b.map(function(a){return a+"px"}),b.join(",");if(96==a){a="";for(var c=b.length,d=0;d<c;d+=2)a+=b[d],a+=b[d+1].join(",");return a}if(80==a){if(0==b[0])return"none";a="";c=b.length;for(d=0;d<c;)a+=S[b[d]],1==b[d]?a+="("+b[d+1]+") ":5==b[d]?(a+="("+b[d+1]+"px "+b[d+2]+"px "+b[d+3]+"px rgba("+(b[d+4]>>>24)+","+(b[d+4]>>16&255)+","+(b[d+4]>>8&255)+","+(b[d+4]&255)/255+")) ",d+=3):a=2==b[d]?a+("("+b[d+1]+"px) "):7==b[d]?a+("("+b[d+1]+"deg) "):a+("("+
(0>b[d+1]?0:b[d+1])+") "),d+=2;return a}return 32==a?b+"px":b}function w(a){return 0>=a?0:255<=a?255:a}function ea(a,b,c,d){if(16==a||32==a)return(c-b)*d+b;if(0==a)return.5>d?b:c;if(48==a){if("number"===typeof b&&"number"===typeof c){var e=1-d;return w(e*(b>>16)+d*(c>>16))<<16|w(e*(b>>8&255)+d*(c>>8&255))<<8|w(e*(b&255)+d*(c&255))}return.5>d?b:c}if(64==a){0==b.length&&(b=[0]);0==c.length&&(c=[0]);var n=b.length;b.length!=c.length&&(n=b.length*c.length);var k=[];for(a=0;a<n;++a){var f=b[a%b.length];
var h=(c[a%c.length]-f)*d+f;0>h&&(h=0);k.push(h)}return k}if(96==a){if(b.length!=c.length)return.5>d?b:c;n=b.length;k=[];for(a=0;a<n;a+=2){if(b[a]!==c[a])return.5>d?b:c;k[a]=b[a];k[a+1]=[];for(f=0;f<b[a+1].length;++f)k[a+1].push((c[a+1][f]-b[a+1][f])*d+b[a+1][f])}return k}if(80==a){n=b.length;if(n!=c.length)return.5>d?b:c;k=[];for(a=0;a<n;){if(b[a]!=c[a]||1==b[a])return.5>d?b:c;k[a]=b[a];k[a+1]=(c[a+1]-b[a+1])*d+b[a+1];if(5==b[a]){k[a+2]=(c[a+2]-b[a+2])*d+b[a+2];k[a+3]=(c[a+3]-b[a+3])*d+b[a+3];e=
1-d;var g=b[a+4],q=c[a+4];h=e*(g>>>24)+d*(q>>>24);var m=e*(g>>16&255)+d*(q>>16&255);f=e*(g>>8&255)+d*(q>>8&255);k[a+4]=(w(m)<<16|w(f)<<8|w(e*(g&255)+d*(q&255)))+16777216*(w(h)|0);a+=3}a+=2}return k}return 0}function T(a,b){a:{var c=a+b[2];var d=b[4].length;for(var e=0;e<d;++e)if(c<b[4][e]){c=e;break a}c=d-1}d=b[2];e=b[4][c-1]-d;a=(a-e)/(b[4][c]-d-e);if(b[6]&&b[6].length>c-1)if(d=b[6][c-1],1==d[0])if(0>=a)a=0;else if(1<=a)a=1;else{e=d[1];var n=d[3];a=ca(3*e-3*n+1,-6*e+3*n,3*e,-a);a=3*a*(1-a)*(1-a)*
d[2]+3*a*a*(1-a)*d[4]+a*a*a}else 2==d[0]?(d=d[1],a=Math.ceil(a*d)/d):3==d[0]&&(d=d[1],a=Math.floor(a*d)/d);return ea(b[1]&240,b[5][c-1],b[5][c],a)}function K(){x||(u=(new Date).getTime()+U)}function N(a){if(a||!C){for(var b=!1,c=0;c<t.length;++c)t[c].I(a)&&(b=!0);if(a)for(;0<F.length;)if(a=F.shift(),c=a[0],1==a[1])c.onfinish&&(c.onfinish(),b=!0),c.H();else if(2==a[1]&&c.onloop)c.onloop();return b}}function V(){K();N(!0)&&!x?(C=!0,L(V)):C=!1}function M(){C||(C=!0,L(V))}function W(a,b){var c=[];a.split(b).forEach(function(a){c.push(parseFloat(a))});
return c}function y(a){-1==a.indexOf(",")&&(a=a.replace(" ",","));return W(a,",")}function X(a){a._ks||(a._ks={});if(!a._ks.transform){for(var b=a._ks.transform=[],c=0;14>=c;++c)b[c]=0;b[10]=1;b[11]=1;if(a=a.getAttribute("transform")){a=a.trim().split(") ");for(c=a.length-2;0<=c;--c)if(v(a[c],"translate(")){for(var d=0;d<c;d++)a.shift();break}c=a.shift();v(c,"translate(")&&(c=y(c.substring(10)),b[1]=c[0],b[2]=A(c[1])?c[1]:0,c=a.shift());v(c,"rotate(")&&(c=y(c.substring(7)),b[6]=c[0],c=a.shift());
v(c,"skewX(")&&(c=y(c.substring(6)),b[7]=c[0],c=a.shift());v(c,"skewY(")&&(c=y(c.substring(6)),b[8]=c[0],c=a.shift());v(c,"scale(")&&(c=y(c.substring(6)),b[10]=c[0],b[11]=A(c[1])?c[1]:0,c=a.shift());v(c,"translate(")&&(c=y(c.substring(10)),b[13]=c[0],b[14]=A(c[1])?c[1]:0)}}}function Y(a){this.D=a;this.B=[];this.w=[];this.s=0;this.o=this.a=this.c=null;this.h=this.f=this.g=0;this.b=1;this.i=this.C=this.m=!1}function I(a,b,c){b=a[b];void 0===b&&(b=a[c]);return b}function fa(a){return Array.isArray(a)?
a:v(a,"cubic-bezier(")?(a=a.substring(13,a.length-1).split(","),[1,parseFloat(a[0]),parseFloat(a[1]),parseFloat(a[2]),parseFloat(a[3])]):v(a,"steps(")?(a=a.substring(6,a.length-1).split(","),[a[1]&&"start"==a[1].trim()?2:3,parseFloat(a[0])]):[0]}function ha(a){a=a.trim();return v(a,"#")?(parseInt(a.substring(1),16)<<8)+255:v(a,"rgba(")?(a=a.substring(5,a.length-1),a=a.split(","),(parseInt(a[0],10)<<24)+(parseInt(a[1],10)<<16)+(parseInt(a[2],10)<<8)+255*parseFloat(a[3])<<0):a}function Z(a){!1===a.i&&
(t.push(a),a.i=!0,!1!==a.D.autoplay&&a.play());return this}function O(a){if(!0===a.i){a._cancel();var b=t.indexOf(a);-1<b&&t.splice(b,1);b=F.indexOf(a);-1<b&&F.splice(b,1);a.i=!1}return this}var P=Error("Not in timeline list"),aa="mpath posX posY    rotate skewX skewY  scaleX scaleY  anchorX anchorY".split(" "),ia=" translate translate    rotate skewX skewY  scale scale  translate translate".split(" "),S="none url blur brightness contrast drop-shadow grayscale hue-rotate invert opacity saturate sepia".split(" "),
L=window.requestAnimationFrame||window.webkitRequestAnimationFrame||window.mozRequestAnimationFrame||window.oRequestAnimationFrame||window.msRequestAnimationFrame||null;L||(L=function(a){window.setTimeout(a,16)});var R={d:97,fill:48,fillOpacity:16,filter:80,height:33,opacity:16,offsetDistance:33,stroke:48,strokeDasharray:64,strokeDashoffset:32,strokeOpacity:16,strokeWidth:32,transform:1,width:33},ba=window.getComputedStyle(document.documentElement),C=!1,u=(new Date).getTime(),x,U=0,t=[],F=[];Y.prototype=
{v:function(a){var b=0;if(null!==this.c){var c=this.j();0<this.b&&null!==c&&c>=this.f?this.h?(this.c=u-this.g/this.b,this.h--,b=2):(b=1,a?this.a=c:this.a=this.o?Math.max(this.o,this.f):this.f):0>this.b&&null!==c&&c<=this.g?this.h&&Infinity!=this.f?(this.c=u-this.f/this.b,this.h--,b=2):(this.h=0,b=1,a?this.a=c:this.a=this.o?Math.min(this.o,this.g):this.g):null!==c&&0!=this.b&&(a&&null!==this.a&&(this.c=u-this.a/this.b),this.a=null)}this.o=this.j();return b},I:function(a){a&&(this.m&&(this.m=!1,null===
this.c&&(0!=this.b&&null!==this.a?(this.c=u-this.a/this.b,this.a=null):this.c=u)),null===this.a&&null!==this.c&&(a=this.v(!1),0!=a&&F.push([this,a])));a=this.j();if(null===a)return!1;for(var b=this.B,c=this.w,d=0;d<b.length;++d){for(var e=b[d],n=!1,k=0;k<c[d].length;++k){var f=c[d][k],h=f[0];if(null!==h){var g=f[2];var q=f[4].length,m=f[4][q-1]-g;g=0==m?f[5][q-1]:a<=g?f[5][0]:a>=g+f[3]?0==f[3]%m?f[5][q-1]:T(f[3]%m,f):T((a-g)%m,f);0==h?(e._ks.mpath=f[8],e._ks.transform[h]=g,n=!0):14>=h?(e._ks.transform[h]=
g,n=!0):(g=da(f[1]&240,g),f[1]&1?e.setAttribute(h,g):e.style[h]=g)}}if(n){X(e);n=e._ks.transform;k="";if(f=e._ks.mpath)g=n[0],0>g&&(g=0),100<g&&(g=100),g=g*f[2]/100,h=f[1].getPointAtLength(g),k="translate("+h.x+","+h.y+") ",f[0]&&(.5>g?(g=h,h=f[1].getPointAtLength(.5)):g=f[1].getPointAtLength(g-.5),k+="rotate("+180*Math.atan2(h.y-g.y,h.x-g.x)/Math.PI+") ");for(f=1;f<n.length;++f)h=n[f],h!=(10==f||11==f?1:0)&&(k+=" "+ia[f]+"(",k=2>=f?k+(1==f?h+",0":"0,"+h):13<=f?k+(13==f?h+",0":"0,"+h):10<=f?k+(10==
f?h+",1":"1,"+h):k+h,k+=")");e.setAttribute("transform",k)}}return"running"==this.l()},H:function(){!1!==this.D.autoremove&&"finished"==this.l()&&O(this)},A:function(){if(!this.C){this.C=!0;for(var a=this.B,b=this.w,c=0;c<a.length;++c)for(var d=a[c],e=0;e<b[c].length;++e)14>=b[c][e][0]&&X(d)}},play:function(a){A(a)&&null!==a&&(H(a),0>this.b&&a<this.g&&(a=this.g),0<this.b&&a>this.f&&(a=this.f),this.u(a,!0));if(!this.i)throw P;a=this.j();if(0<this.b&&(null===a||a>=this.f))this.a=this.g;else if(0>this.b&&
(null===a||a<=this.g)){if(Infinity==this.f)throw Error("Cannot seek to Infinity");this.a=this.f}else 0==this.b&&null===a&&(this.a=this.g);if(null===this.a)return this;this.c=null;this.m=!0;this.A();M();return this},pause:function(a){if(!this.i)throw P;A(a)&&H(a);if("paused"!=this.l()){K();var b=this.j();if(null===b)if(0<=this.b)this.a=this.g;else{if(Infinity==this.f)throw Error("Cannot seek to Infinity");this.a=this.f}null!==this.c&&null===this.a&&(this.a=b);this.c=null;this.m=!1;this.v(!1);this.A();
M()}A(a)&&this.u(a,!0);return this},range:function(a,b){if(0==arguments.length)return{"in":this.g,out:this.f};var c=+a,d=this.s;A(b)&&(d=+b);H(c);if(0>c||0>d||c>=d||isNaN(d))throw Error("Invalid range");var e=this.l();this.g=c;this.f=d;"finished"==e&&"running"==this.l()&&this.play();return this},loop:function(a){if(!A(a))return{count:this.h};this.h=!0===a?Infinity:Math.floor(a);if(0>this.h||isNaN(this.h))this.h=0;return this},j:function(){return null!==this.a?this.a:null===this.c?null:(u-this.c)*
this.b},u:function(a,b){b&&K();null!==a&&(this.A(),null!==this.a||null===this.c||0==this.b?(this.a=a,N(!1)):this.c=u-a/this.b,this.i||(this.c=null),this.o=null,this.v(!0),M())},F:function(){return this.j()},time:function(a){if(A(a)){if(!this.i)throw P;H(a);this.u(a,!0);return this}return this.F()},l:function(){var a=this.j();return this.m?"running":null===a?"idle":null===this.c?"paused":0<this.b&&a>=this.f||0>this.b&&a<=this.g?"finished":"running"},state:function(){return this.l()},duration:function(){return this.s},
G:function(a){H(a);K();var b=this.j();this.b=a;null!==b&&this.u(b,!1)},rate:function(a){return A(a)?(this.G(a),this):this.b},_cancel:function(){if(!this.i||"idle"==this.l())return this;this.c=this.a=null;this.m=!1;return this}};return{version:"1.0.0",animate:function(){var a={};if(1==arguments.length%2){a=arguments[arguments.length-1];var b={};for(c in a)b[c]=a[c];a=b}var c=new Y(a);a=arguments;for(var d=b=0;d<a.length-1;d+=2){var e=a[d];var n=e instanceof Element?e:document.getElementById(e.substring(1));
if(!n)throw Error("Invalid target: "+e);e=n;n=a[d+1];e._ks||(e._ks={});for(var k=[],f=0;f<n.length;++f){var h=n[f],g=I(h,"p","property");if("string"!=typeof g||-1!=g.indexOf("-")||""===g||!(0<R[g]||0<=aa.indexOf(g)))throw Error("Invalid property: "+g);var q=aa.indexOf(g);""!==g&&0<=q&&(g=q);q=Q(g);var m=I(h,"t","times");if(!m||2>m.length)throw Error("Not enough times");m=m.slice();if(!isFinite(m[0])||0>m[0])throw Error("Invalid time: "+m[0]);for(var B=1;B<m.length;++B)if(!isFinite(m[B])||0>m[B]||
m[B]<m[B-1])throw Error("Invalid time: "+m[B]);B=m[0];var u=m[m.length-1]-B,x=h.iterations||0;1>x&&(x=1);u*=x;b<u+B&&(b=u+B);var t=I(h,"v","values");if(!t||t.length!=m.length)throw Error("Values do not match times");t=t.slice();for(var D=g,l=t,w=Q(D)&240,p=0;p<l.length;++p)if(96==w){for(var y=l[p].substring(6,l[p].length-2).match(/[A-DF-Za-df-z][-+0-9eE., ]*/ig),C=[],r=0;r<y.length;++r){C.push(y[r][0]);for(var z=1<y[r].trim().length?y[r].substring(1).split(","):[],G=0;G<z.length;++G)z[G]=parseFloat(z[G]);
C.push(z)}l[p]=C}else if(48==w)v(l[p],"#")?l[p]=parseInt(l[p].substring(1),16):v(l[p],"url(")||"none"==l[p]||(console.warn("unsupported color: "+l[p]),l[p]=0);else if(80==w){y=l;C=p;r=l[p];if("none"==r)r=[0];else{z=[];for(var E=r.indexOf("(");0<E;)if(G=S.indexOf(r.substring(0,E)),0<=G){z.push(G);var F=r.indexOf(") ");0>F&&(F=r.length-1);E=r.substring(E+1,F).split(" ");5==G?(z.push(parseFloat(E[0])),z.push(parseFloat(E[1])),z.push(parseFloat(E[2])),z.push(ha(E[3]))):1==G?z.push(E[0]):z.push(parseFloat(E[0]));
r=r.substring(F+1).trim();E=r.indexOf("(")}else break;r=z}y[C]=r}else 64==w?"none"!=l[p]?/^[0-9 .]*$/.test(l[p])?l[p]=W(l[p]," "):(console.warn("unsupported value: "+l[p]),l[p]=[0]):l[p]=[0]:32==w?(H(l[p]),l[p]=parseFloat(l[p])):0===D&&(l[p]=parseFloat(l[p]));D=I(h,"e","easing");l=m.length;for(D||(D=[]);D.length<l;)D.push([1,0,0,.58,1]);for(l=0;l<D.length;++l)D[l]=fa(D[l]);q=[g,q,B,u,m,t,D,x];m=I(h,"mp","motionPath");A(m)&&0===g&&(q[8]=[],q[8][0]=h.motionRotate,h=document.createElementNS("https://www.w3.org/2000/svg",
"path"),m||(m="M0,0"),h.setAttribute("d",m),q[8][1]=h,q[8][2]=h.getTotalLength());k.push(q)}0<k.length&&(c.B.push(e),c.w.push(k))}c.s=b;c.g=0;c.f=c.s;Z(c);return c},add:Z,remove:O,removeAll:function(){for(var a=t.length-1;0<=a;--a)O(t[a]);return this},timelines:function(){return t.slice()},globalPlay:function(){x&&(U=x-(new Date).getTime(),x=void 0,M());return this},globalPause:function(){x||(x=u,N(!1));return this},globalState:function(){return x?"paused":"running"}}}();
]]></script><script><![CDATA[if(KeyshapeJS.version.indexOf('1.')!=0)throw Error('Expected KeyshapeJS v1.*.*');window.ks=document.ks=KeyshapeJS;(function(ks){
ks.animate("#anime-dockerfile",[{p:'opacity',t:[0,200],v:[0,1],e:[[0],[0]]}],
"#anime-container-1",[{p:'opacity',t:[3900,4100],v:[0,1],e:[[1,.4,0,.6,1],[0]]}],
"#anime-container-1-color",[{p:'fill',t:[4600,4800,5300,5500],v:['#066da5','#0a80bd','#0a80bd','#0e93d8'],e:[[1,.4,0,.6,1],[1,.4,0,.6,1],[1,.4,0,.6,1],[0]]}],
"#anime-container-2",[{p:'opacity',t:[4600,4800],v:[0,1],e:[[1,.4,0,.6,1],[0]]}],
"#anime-container-2-color",[{p:'fill',t:[5300,5500],v:['#066da5','#0881c4'],e:[[1,.4,0,.6,1],[0]]}],
"#anime-container1",[{p:'opacity',t:[5300,5500],v:[0,1],e:[[1,.4,0,.6,1],[0]]}],
"#anime-docker-image",[{p:'opacity',t:[1400,1600],v:[0,1],e:[[1,.4,0,.6,1],[0]]}],
"#anime-arrow-line-1",[{p:'d',t:[400,1400],v:["path('M0,20.5C0,20.5,0,20.5,0,20.5L0,20.5')","path('M0,20.5C0,20.5,1.4,20.5,3,20.5L128,20.5')"],e:[[1,.4,0,.6,1],[0]]}],
"#anime-arrow-head-1",[{p:'mpath',t:[400,1400],v:['0%','100%'],e:[[1,.4,0,.6,1],[0]],mp:"M-124,0L0,0"},{p:'opacity',t:[200,400],v:[0,1],e:[[1,.4,0,.6,1],[0]]}],
"#anime-arrow-line-2",[{p:'d',t:[2900,3900],v:["path('M0,20.5C0,20.5,0,20.5,0,20.5L0,20.5')","path('M0,20.5C0,20.5,1.4,20.5,3,20.5L128,20.5')"],e:[[1,.4,0,.6,1],[0]]}],
"#anime-arrow-head-2",[{p:'mpath',t:[2900,3900],v:['0%','100%'],e:[[1,.4,0,.6,1],[0]],mp:"M-124,0L0,0"},{p:'opacity',t:[2700,2900],v:[0,1],e:[[1,.4,0,.6,1],[0]]}],
"#anime-relationships2",[{p:'opacity',t:[6600,6800],v:[0,1],e:[[1,.4,0,.6,1],[0]]}],
"#anime-relationships1",[{p:'opacity',t:[7200,7400],v:[0,1],e:[[1,.4,0,.6,1],[0]]}],
"#anime-docker-build",[{p:'opacity',t:[400,600,2100,2300],v:[0,1,1,0],e:[[1,.4,0,.6,1],[1,.4,0,.6,1],[1,.4,0,.6,1],[0]]}],
"#anime-docker-run",[{p:'opacity',t:[2900,3100,5900,6100],v:[0,1,1,0],e:[[1,.4,0,.6,1],[1,.4,0,.6,1],[1,.4,0,.6,1],[0]]}],
{autoremove:false}).range(0,7400);
if(document.location.search.substr(1).split('&').indexOf('global=paused')>=0)ks.globalPause()})(KeyshapeJS);
]]></script></svg>